<?xml version="1.0" standalone="no"?>
<!DOCTYPE svg PUBLIC "-//W3C//DTD SVG 20010904//EN"
 "http://www.w3.org/TR/2001/REC-SVG-20010904/DTD/svg10.dtd">
<svg version="1.0" xmlns="http://www.w3.org/2000/svg"
 width="651.000000pt" height="1400.000000pt" viewBox="0 0 651.000000 1400.000000"
 preserveAspectRatio="xMidYMid meet">

<g transform="translate(0.000000,1400.000000) scale(0.100000,-0.100000)"
fill="#000000" stroke="none">
<path d="M2750 13989 c-30 -4 -66 -13 -80 -19 l-25 -10 27 5 c21 4 26 2 22
-10 -3 -8 -21 -17 -40 -21 -19 -3 -31 -10 -29 -15 7 -10 -95 -70 -107 -63 -4
3 -8 0 -8 -6 0 -6 -4 -9 -8 -6 -21 13 -156 -167 -168 -224 -10 -45 -46 -130
-54 -125 -4 2 -12 -27 -19 -65 -14 -86 -14 -93 2 -85 6 4 -3 -7 -20 -23 -46
-40 -44 -62 5 -56 28 3 32 2 17 -5 -11 -5 -30 -10 -42 -10 -23 -1 -23 -1 -23
-180 0 -140 3 -181 14 -190 8 -6 23 -34 35 -61 12 -27 27 -53 34 -57 13 -9 14
-13 21 -128 10 -165 12 -170 180 -407 26 -38 46 -68 43 -68 -3 0 -97 120 -162
207 -7 9 -9 -27 -7 -112 2 -83 0 -125 -7 -125 -6 0 -11 -9 -11 -19 0 -11 -4
-21 -9 -23 -24 -9 -100 -82 -94 -91 3 -6 1 -7 -4 -4 -10 6 -95 -76 -104 -100
-2 -6 -38 -27 -79 -48 l-75 -37 82 81 c45 45 79 81 74 81 -4 0 -56 -48 -117
-106 -142 -137 -147 -141 -178 -121 -23 15 -26 15 -63 -12 -48 -36 -117 -110
-119 -130 -2 -9 16 5 39 32 23 26 46 47 50 47 5 0 -19 -39 -51 -87 -145 -215
-212 -335 -256 -465 -16 -50 -76 -141 -76 -117 0 8 25 75 54 149 30 74 53 136
52 137 -2 2 -11 -15 -21 -37 -10 -22 -22 -37 -28 -33 -6 3 -7 1 -3 -6 5 -7 -2
-37 -15 -67 -12 -31 -25 -51 -29 -44 -3 6 -7 -4 -8 -22 -3 -100 -5 -109 -24
-105 -11 3 -18 0 -18 -9 0 -25 34 -15 51 15 17 29 46 36 61 16 12 -16 9 -118
-3 -156 -17 -48 -58 -101 -75 -95 -26 10 -15 -22 17 -48 19 -16 25 -26 15 -26
-49 0 -79 119 -52 210 19 62 19 63 7 56 -15 -10 -34 -124 -29 -176 4 -38 12
-58 33 -80 16 -17 34 -30 41 -30 7 0 16 -5 20 -11 5 -9 -9 -10 -52 -4 -32 4
-62 12 -66 19 -5 6 -8 2 -8 -11 0 -17 7 -24 28 -29 15 -3 32 -7 38 -9 7 -2 12
-31 13 -72 1 -76 10 -133 20 -133 3 0 6 -15 6 -32 0 -31 3 -33 40 -38 l40 -5
12 65 c6 36 12 81 12 100 1 20 5 30 10 25 5 -6 3 -47 -5 -100 -7 -49 -11 -96
-9 -104 3 -7 0 -20 -7 -29 -11 -13 -9 -14 17 -8 28 7 28 6 11 -7 -17 -13 -18
-21 -11 -88 5 -41 9 -88 9 -105 1 -20 5 -30 13 -27 7 3 10 -3 6 -15 -2 -11 1
-46 7 -78 16 -77 19 -107 12 -119 -4 -5 -10 4 -14 20 -4 18 -5 8 -2 -25 5 -59
23 -120 36 -120 4 0 1 19 -7 41 -19 53 -19 75 1 83 24 9 25 8 12 -13 -9 -14
-8 -26 2 -50 7 -17 16 -31 20 -31 4 0 11 -7 14 -16 4 -10 2 -13 -6 -8 -7 4 -2
-7 11 -24 26 -37 36 -42 21 -9 -10 20 -10 21 4 4 8 -11 12 -25 9 -32 -2 -8 5
-20 16 -27 12 -7 21 -18 21 -24 0 -6 10 -24 22 -40 13 -15 17 -25 10 -20 -23
14 -12 -8 33 -65 25 -32 45 -61 45 -65 0 -5 -22 -31 -49 -59 -64 -66 -151
-176 -151 -191 0 -7 -23 -29 -51 -49 -44 -32 -82 -85 -84 -120 -1 -18 -37 -65
-45 -60 -5 3 -11 1 -15 -5 -7 -11 3 -13 51 -10 18 1 35 -3 38 -9 5 -7 -3 -9
-21 -5 -26 5 -35 -2 -97 -76 -45 -53 -74 -79 -83 -76 -8 4 -17 6 -19 6 -2 0
29 30 68 66 93 85 102 105 13 30 -83 -71 -108 -87 -133 -89 -12 0 -19 -4 -17
-7 2 -4 -22 -18 -54 -33 -57 -26 -60 -26 -92 -10 -19 9 -46 24 -60 34 -14 10
-29 16 -32 12 -7 -6 -56 10 -99 33 -27 14 -33 12 -28 -11 1 -5 -2 -6 -7 -2 -4
5 -9 13 -9 18 -3 22 -5 23 -13 10 -8 -12 -15 -10 -40 12 -18 14 -66 43 -109
64 -42 21 -81 43 -85 50 -12 19 -30 16 -19 -3 5 -9 7 -27 4 -41 l-5 -26 -18
34 c-10 19 -18 45 -19 59 0 14 -14 38 -30 54 -26 25 -37 29 -102 31 -40 2 -80
6 -89 9 -22 9 -79 -59 -79 -94 0 -14 9 -40 20 -58 11 -18 20 -35 20 -39 0 -3
-19 -3 -43 0 -23 3 -34 3 -24 0 11 -3 16 -11 13 -21 -2 -9 -7 -38 -11 -64 -3
-25 -14 -56 -24 -67 -19 -21 -19 -20 -23 56 -4 63 -2 81 11 92 14 11 10 12
-24 6 -77 -13 -79 -17 -91 -185 -9 -115 -7 -143 16 -228 11 -40 20 -89 21
-110 0 -30 2 -33 9 -17 7 17 9 15 9 -11 1 -17 4 -47 7 -65 6 -33 6 -33 -10
-14 -16 19 -16 19 -8 -5 5 -16 26 -34 57 -49 46 -23 70 -26 165 -20 14 1 47
-4 73 -12 44 -12 52 -12 79 4 37 21 67 21 258 -2 303 -37 397 -37 540 4 48 14
212 39 376 59 l51 6 13 -47 c7 -27 21 -65 32 -85 10 -21 18 -54 18 -73 0 -25
4 -35 13 -32 9 3 11 30 9 103 -10 368 -11 464 -4 464 8 0 113 -144 154 -210
19 -32 35 -102 47 -210 6 -47 13 -112 17 -145 4 -33 7 -67 5 -75 -1 -13 -1
-13 7 0 9 14 -8 236 -23 315 -4 21 7 8 39 -45 42 -72 44 -81 58 -205 8 -71 11
-132 6 -133 -14 -6 -9 -22 7 -22 8 0 12 -6 9 -13 -3 -8 7 -81 21 -163 20 -117
43 -300 45 -356 0 -5 -7 -8 -15 -8 -25 0 -54 84 -70 202 -18 130 -56 330 -62
324 -4 -4 53 -407 67 -471 10 -43 6 -50 -25 -58 -11 -3 5 -5 35 -6 30 -1 60
-5 66 -9 6 -4 16 -47 23 -97 13 -85 35 -198 47 -237 3 -10 1 -18 -4 -18 -5 0
-13 17 -17 38 -3 20 -17 82 -30 137 -13 55 -26 115 -30 133 -5 25 -12 32 -30
32 l-24 0 17 -57 c9 -32 19 -60 24 -61 4 -2 6 -7 3 -12 -6 -9 14 -87 40 -163
10 -26 15 -59 12 -72 -2 -14 0 -25 4 -25 5 0 5 -10 0 -22 -10 -29 -6 -79 8
-107 19 -35 4 -24 -20 15 -12 20 -42 49 -65 64 -24 15 -40 31 -36 35 4 5 1 5
-5 1 -16 -9 -56 12 -48 24 3 6 0 7 -7 5 -8 -3 -30 9 -51 27 -33 30 -39 45 -66
153 -33 132 -42 120 -11 -15 10 -46 17 -86 16 -88 -2 -1 -18 10 -36 25 -39 32
-59 77 -70 153 -4 30 -10 61 -12 69 -2 10 14 18 52 28 69 17 84 22 79 27 -2 3
-31 -2 -64 -10 -75 -17 -76 -17 -69 1 4 8 1 15 -6 15 -10 0 -10 3 -1 14 9 11
9 15 -1 18 -11 4 -18 92 -18 261 0 21 -4 36 -9 33 -5 -3 -9 -52 -10 -108 -1
-56 -4 -105 -7 -107 -14 -14 -24 33 -26 119 l-2 95 -6 -90 c-6 -80 -7 -76 -5
40 1 72 5 146 9 165 3 19 7 78 9 130 l2 95 -37 -43 c-47 -54 -56 -71 -64 -119
-3 -21 -10 -39 -15 -41 -5 -2 -8 -31 -7 -65 l1 -62 7 60 7 60 1 -55 c5 -145
51 -347 113 -493 16 -38 26 -73 23 -78 -3 -5 0 -8 7 -7 6 2 14 -3 17 -11 3 -9
0 -11 -9 -6 -8 5 -11 4 -6 -1 5 -5 12 -9 15 -9 4 0 30 -24 57 -54 29 -32 41
-49 28 -42 -13 6 -23 10 -23 7 0 -2 11 -43 25 -90 28 -98 29 -99 15 -91 -7 4
-9 -3 -5 -22 3 -15 -3 -5 -14 24 -11 29 -23 77 -26 107 -5 38 -12 56 -21 56
-8 0 -14 10 -13 23 0 21 1 21 9 2 8 -20 9 -19 9 1 1 12 -5 27 -12 33 -21 17
-20 -41 3 -119 10 -36 39 -139 65 -230 26 -91 49 -176 52 -190 l4 -25 -19 22
c-22 25 -109 250 -148 380 -29 99 -85 345 -80 351 2 2 14 -18 26 -43 12 -25
24 -44 27 -41 4 3 -17 48 -46 96 -5 8 -14 35 -21 58 -17 65 -21 46 -10 -44 21
-155 21 -185 1 -94 -25 114 -25 87 -1 -63 26 -162 60 -284 119 -431 150 -370
357 -768 583 -1119 36 -57 92 -155 146 -257 25 -47 53 -96 62 -110 9 -14 34
-61 55 -105 49 -105 156 -283 213 -354 68 -85 171 -183 234 -224 33 -21 86
-70 125 -117 37 -45 87 -102 111 -128 l42 -47 -2 -150 -3 -150 42 -87 c23 -49
44 -88 47 -88 2 0 -13 41 -35 91 -30 68 -39 103 -39 145 0 74 16 68 25 -8 14
-120 153 -393 236 -462 33 -28 106 -46 184 -46 30 0 55 -4 55 -8 0 -8 -119 -5
-178 4 -45 7 -98 57 -157 148 -27 41 -51 73 -54 71 -7 -7 75 -127 121 -176 56
-61 99 -73 238 -66 58 3 115 8 126 12 18 6 37 -11 122 -107 55 -62 118 -135
139 -163 20 -27 43 -57 50 -65 146 -183 383 -518 383 -542 0 -4 24 -23 53 -40
50 -32 51 -33 25 -38 l-27 -5 49 -78 c28 -42 50 -79 50 -81 0 -8 233 -416 260
-456 23 -34 161 -264 179 -298 8 -15 18 -28 23 -30 4 -2 8 -8 8 -13 0 -22 200
-356 242 -403 5 -6 22 4 43 24 19 18 37 32 39 29 6 -6 93 -230 117 -302 42
-125 130 -340 207 -508 21 -46 53 -121 72 -167 34 -87 51 -105 110 -117 19 -4
43 -14 53 -23 12 -11 43 -18 88 -20 l70 -4 44 46 c49 50 65 90 46 115 -40 56
-33 83 26 107 26 11 33 22 41 56 7 36 6 46 -10 64 -29 33 -24 98 11 135 23 23
31 43 36 88 6 56 6 58 -29 93 -29 29 -36 43 -36 76 0 43 38 102 66 102 10 0
14 13 14 48 0 38 -7 57 -38 102 -118 173 -168 402 -127 578 19 79 38 116 86
169 40 44 43 53 33 115 -5 26 -13 39 -28 44 -63 19 -75 77 -25 117 31 24 31
26 24 82 -4 34 -13 62 -23 70 -9 8 -32 26 -49 40 -48 39 -40 85 14 85 28 0 28
0 -2 63 -37 77 -63 92 -160 91 -44 0 -103 -8 -130 -16 -44 -13 -55 -14 -77 -2
-29 15 -58 86 -58 140 0 21 -6 34 -17 39 -10 4 -64 24 -120 45 -79 30 -117 51
-170 95 -37 31 -67 60 -66 64 1 4 -4 8 -10 8 -19 0 -182 132 -350 283 -82 74
-160 144 -173 155 -24 20 -60 95 -68 141 -3 13 -12 39 -20 56 -31 62 -8 37 37
-40 47 -81 175 -240 243 -302 35 -31 36 -32 14 -5 -14 16 -27 32 -30 35 -28
27 -170 214 -207 272 -64 99 -181 331 -228 451 -20 54 -39 96 -42 93 -5 -4 75
-203 107 -266 11 -21 20 -43 20 -47 -1 -17 -46 77 -152 317 -11 25 -25 59 -33
75 -7 17 -34 84 -60 150 -42 108 -80 200 -108 262 -5 12 -31 48 -57 80 -26 32
-51 70 -55 83 -4 14 -14 32 -21 41 -19 21 -33 309 -16 309 6 0 14 -5 18 -12
13 -20 42 74 32 102 -5 14 -13 45 -18 69 -7 39 -5 46 16 66 33 31 45 67 33
107 -5 18 -9 51 -9 74 0 47 -52 159 -100 214 -16 19 -53 46 -81 60 l-51 25
-65 145 c-35 80 -85 190 -111 245 l-46 100 -1 280 c-1 154 -5 314 -10 356 -6
63 -5 78 9 91 9 9 16 18 16 20 0 3 34 40 75 84 42 43 73 85 70 92 -2 7 -1 11
4 7 16 -9 80 76 125 169 64 130 81 223 70 391 -4 71 -6 217 -5 324 2 136 0
191 -8 187 -16 -10 -24 38 -18 107 4 40 3 55 -3 42 -7 -15 -9 -9 -8 25 1 84
-32 372 -52 459 -37 155 -178 405 -274 486 -26 22 -87 60 -136 85 -49 25 -95
51 -101 57 -8 8 -1 47 24 144 19 74 37 146 41 160 4 17 18 31 44 43 21 9 43
29 50 44 15 32 97 124 89 100 -9 -25 0 -22 14 3 8 15 8 19 0 15 -20 -13 -12 3
40 76 58 82 75 102 66 76 -8 -23 21 -47 34 -27 5 8 9 22 9 32 0 9 4 17 9 17
14 0 56 95 81 185 12 44 28 100 36 125 13 44 87 340 98 391 5 23 14 28 98 48
109 27 226 75 293 121 27 18 105 88 174 155 69 67 145 132 168 145 37 20 46
33 69 94 15 39 44 109 64 156 59 135 59 130 8 131 l-43 1 40 8 c22 4 41 7 43
5 1 -1 23 16 47 39 52 49 100 116 82 116 -7 0 -3 6 8 11 50 27 94 62 89 70 -3
5 1 6 8 4 7 -3 37 6 67 20 29 14 87 40 129 56 122 49 206 96 225 128 22 37 23
124 2 145 -17 17 -25 16 -160 -14 -44 -10 -102 -22 -128 -25 -35 -6 -52 -14
-64 -32 -9 -13 -18 -21 -21 -18 -3 3 3 14 13 25 10 11 16 20 13 20 -8 0 -73
-27 -145 -61 -74 -34 -78 -35 -110 -9 -14 11 -36 20 -49 20 -14 0 -30 10 -40
25 -16 24 -15 26 33 82 27 32 60 75 72 95 12 21 28 41 36 45 16 10 84 96 134
170 21 32 64 85 97 119 32 33 66 74 74 90 8 16 22 41 32 55 58 87 34 194 -56
250 -26 16 -32 16 -55 4 -34 -18 -195 -191 -246 -265 -73 -105 -186 -244 -266
-328 -43 -46 -79 -88 -79 -93 0 -6 -6 -9 -14 -6 -7 3 -18 1 -24 -5 -6 -6 -16
-7 -23 -3 -17 11 -4 222 17 271 19 46 44 173 44 225 0 21 11 71 24 111 39 116
52 214 38 283 -21 105 -54 126 -156 105 -51 -10 -55 -13 -74 -58 -28 -65 -101
-279 -112 -327 -5 -22 -16 -69 -24 -105 -9 -36 -22 -112 -31 -170 -8 -58 -17
-115 -20 -127 -6 -28 -41 -39 -63 -21 -9 8 -36 22 -59 32 -40 18 -42 21 -49
74 -4 30 -3 89 0 131 24 256 15 440 -27 515 -26 48 -57 66 -115 66 -38 0 -44
-3 -56 -32 -13 -30 -76 -275 -96 -373 -4 -22 -8 -96 -9 -165 -1 -68 -5 -128
-8 -133 -3 -5 -13 -7 -22 -4 -25 6 -226 -10 -285 -23 -28 -6 -102 -28 -164
-47 -93 -29 -112 -39 -107 -52 16 -39 17 -78 3 -84 -8 -3 -57 3 -109 14 -136
27 -152 29 -164 19 -6 -5 -11 3 -12 23 -2 17 2 34 8 38 7 4 5 12 -5 22 -12 11
-16 33 -14 84 1 67 1 67 7 18 7 -57 21 -40 17 21 -2 25 7 62 25 104 58 137 76
278 43 342 -12 24 -13 33 -3 42 8 7 10 7 6 0 -4 -6 1 -20 9 -30 15 -18 15 -18
10 6 -3 14 -7 59 -8 100 -1 63 -2 67 -5 23 -5 -68 -23 -69 -23 -1 0 50 -10
121 -32 223 -13 60 -69 175 -112 230 -17 21 -31 44 -31 50 0 5 -40 30 -90 55
-120 60 -261 86 -375 69z m-13 -35 c-3 -3 -12 -4 -19 -1 -8 3 -5 6 6 6 11 1
17 -2 13 -5z m313 -214 c-7 -55 -16 -100 -20 -100 -19 0 -27 161 -10 206 10
25 12 26 27 11 15 -14 15 -26 3 -117z m-366 -11 c28 -102 31 -122 17 -100 -5
8 -11 -16 -15 -65 -12 -135 -17 -162 -35 -169 -39 -17 -85 -23 -107 -14 -17 6
-24 5 -24 -4 -1 -6 -7 -1 -14 12 -12 21 -14 22 -20 5 -6 -16 -9 -16 -17 -4
-12 18 -6 -25 11 -75 10 -29 7 -38 -19 -81 -17 -27 -34 -65 -37 -84 l-6 -35
32 47 c17 27 37 51 43 55 8 4 7 1 -1 -9 -7 -9 -12 -20 -11 -24 1 -5 1 -16 0
-24 -1 -12 -3 -12 -10 -2 -7 11 -9 11 -14 -1 -5 -13 5 -16 31 -8 1 1 5 1 10 2
4 0 16 9 28 20 20 19 21 19 44 -6 13 -14 32 -25 42 -25 22 0 98 -37 98 -48 0
-4 -7 -20 -15 -36 -16 -31 -13 -62 5 -51 12 8 13 -5 1 -24 -8 -12 -16 -13 -51
-2 -23 7 -44 10 -47 8 -2 -3 5 -8 16 -12 23 -7 27 -20 11 -30 -16 -10 -1 -25
17 -18 11 4 14 3 9 -6 -5 -7 -14 -10 -22 -7 -7 3 -16 1 -19 -4 -4 -6 -16 -10
-28 -10 -17 0 -19 -2 -7 -9 8 -6 18 -7 24 -4 5 3 6 1 2 -6 -4 -6 -12 -8 -18
-5 -7 4 -8 2 -4 -5 8 -12 4 -16 -59 -70 -22 -19 -39 -38 -38 -43 2 -4 -4 -5
-12 -2 -9 4 -18 -1 -21 -11 -5 -13 -15 -7 -50 32 -24 26 -44 51 -44 55 0 4
-28 44 -63 90 -83 109 -80 103 -60 140 9 18 16 38 15 45 -2 7 8 34 22 61 13
27 31 75 40 108 16 62 57 291 60 335 4 57 63 109 205 180 42 20 77 37 77 36 1
-1 14 -45 28 -98z m516 -26 c48 -55 109 -156 134 -226 16 -44 17 -51 2 -80
-39 -84 -116 -302 -116 -331 0 -17 -13 -26 -62 -45 -65 -25 -95 -43 -62 -36
10 2 42 6 70 9 50 5 51 4 46 -20 -3 -17 -17 -31 -41 -42 -20 -9 -38 -20 -41
-24 -10 -12 -80 -21 -80 -9 0 6 -17 11 -39 11 -27 0 -41 5 -45 16 -8 20 -10
18 34 32 30 9 24 10 -40 5 -113 -8 -130 -10 -137 -17 -4 -3 20 -6 51 -6 43 0
57 -3 53 -13 -4 -11 0 -44 17 -137 2 -8 7 -23 11 -34 8 -19 -14 -42 -26 -28
-11 12 -27 126 -24 165 5 44 -11 50 -20 7 -8 -34 13 -168 28 -188 6 -7 19 -11
29 -9 10 3 18 3 18 0 0 -2 -25 -55 -56 -116 -30 -62 -55 -113 -55 -114 1 -2 1
-12 1 -23 0 -18 -5 -19 -67 -13 -74 6 -84 10 -64 22 8 5 14 42 18 106 5 75 3
96 -6 91 -9 -6 -10 0 -5 20 5 19 4 25 -5 20 -7 -5 -11 1 -11 14 0 12 3 19 8
17 4 -3 8 5 9 16 1 12 5 44 9 71 6 40 4 47 -6 41 -8 -5 -4 6 8 23 13 17 28 34
34 38 7 4 6 9 -3 15 -10 6 -7 10 11 18 14 5 22 10 19 10 -4 1 1 31 11 67 14
53 15 64 4 60 -16 -6 -19 19 -4 29 5 3 22 32 37 63 15 31 30 59 34 62 7 6 59
134 55 137 -1 2 -20 5 -41 8 -68 8 -52 18 22 12 l72 -6 31 82 c46 123 49 128
49 94 2 -55 18 -16 24 56 10 111 23 134 47 77 7 -17 10 -52 8 -80 -3 -28 -2
-50 3 -50 13 0 21 58 14 101 -6 32 -4 40 5 34 9 -5 11 -4 6 4 -4 6 -11 9 -16
6 -4 -3 -10 2 -14 10 -3 8 -12 15 -20 15 -10 0 -13 6 -10 15 8 21 33 6 84 -52z
m-304 -25 c5 4 6 3 1 -2 -8 -10 40 -66 57 -66 12 0 56 -41 56 -52 0 -5 -17 4
-37 21 -21 17 -44 31 -53 31 -8 0 -25 16 -37 35 -26 39 -29 53 -10 36 8 -6 18
-7 23 -3z m-123 -18 c3 -11 1 -20 -4 -20 -5 0 -9 9 -9 20 0 11 2 20 4 20 2 0
6 -9 9 -20z m82 -7 l18 -28 -21 19 c-12 11 -22 23 -22 28 0 14 7 9 25 -19z
m-30 -93 c20 -39 21 -67 1 -51 -25 21 -39 81 -20 81 2 0 10 -13 19 -30z m-73
-95 c3 -13 1 -22 -3 -19 -9 5 -13 44 -5 44 2 0 6 -11 8 -25z m1597 -43 c7 -14
5 -21 -8 -29 -20 -13 -41 -83 -41 -138 0 -25 -4 -35 -12 -33 -19 7 -21 44 -8
112 19 93 47 129 69 88z m68 -7 c20 -10 37 -30 48 -58 19 -47 33 -167 19 -167
-5 0 -9 20 -10 44 0 25 -8 55 -16 68 -9 13 -15 37 -15 52 0 32 -25 56 -56 56
-10 0 -15 5 -12 10 8 13 6 13 42 -5z m513 0 c0 -9 6 -12 18 -9 14 5 14 4 2 -4
-8 -6 -17 -9 -21 -7 -12 8 -36 -30 -54 -82 -10 -33 -22 -53 -31 -53 -10 0 -13
6 -10 18 3 9 8 31 12 47 9 38 33 88 48 97 18 12 36 9 36 -7z m-1602 -165 c-11
-82 -16 -94 -40 -112 l-28 -19 7 33 c3 18 14 49 24 68 10 19 23 57 30 83 18
73 21 50 7 -53z m1677 14 c-3 -49 -18 -74 -45 -74 -25 0 -43 26 -43 61 0 36
18 51 55 46 22 -3 25 -1 16 10 -8 10 -7 12 5 7 11 -4 15 -17 12 -50z m-569 34
c22 -35 7 -121 -22 -132 -9 -3 -26 5 -40 19 -40 40 -28 107 21 118 33 8 34 8
41 -5z m628 -45 c-3 -26 -9 -55 -14 -64 -5 -9 -6 -20 -2 -24 4 -5 1 -5 -5 -1
-9 5 -13 1 -13 -11 0 -10 -5 -25 -11 -33 -7 -11 -9 -2 -5 33 2 26 9 54 16 61
6 8 13 32 14 53 5 47 4 45 16 38 5 -3 7 -27 4 -52z m-2541 -67 c-10 -13 -20
-22 -22 -20 -4 4 29 44 36 44 2 0 -4 -11 -14 -24z m1764 2 c-3 -8 -6 -5 -6 6
-1 11 2 17 5 13 3 -3 4 -12 1 -19z m566 7 c-3 -9 -8 -14 -10 -11 -3 3 -2 9 2
15 9 16 15 13 8 -4z m-583 -126 c-9 -31 -14 -39 -21 -28 -5 8 -5 15 1 17 5 2
13 27 17 55 5 36 9 44 11 25 2 -14 -2 -46 -8 -69z m1410 48 c47 -38 69 -137
40 -185 -11 -21 -12 -11 -1 46 6 29 5 47 -3 55 -6 7 -20 23 -31 37 -18 21 -18
23 -2 17 10 -4 16 -3 13 2 -4 5 -25 7 -49 4 -33 -5 -55 -17 -98 -57 -74 -67
-89 -78 -89 -69 0 4 33 43 73 86 60 63 78 77 102 77 17 0 37 -6 45 -13z
m-2879 -70 c-10 -9 -11 -8 -5 6 3 10 9 15 12 12 3 -3 0 -11 -7 -18z m1444 -22
c21 -28 24 -39 15 -50 -17 -20 -24 -114 -12 -158 11 -39 3 -48 -19 -21 -12 15
-28 264 -16 264 2 0 17 -16 32 -35z m-939 -109 l5 -71 -43 -35 c-24 -19 -37
-27 -30 -18 8 10 11 22 7 27 -3 6 0 8 8 5 8 -3 18 3 22 13 9 22 6 103 -5 142
-5 19 -4 33 3 40 16 16 26 -16 33 -103z m1449 31 c-4 -18 -13 -57 -20 -87
l-13 -55 -1 52 c-1 29 4 75 10 104 9 43 13 49 21 35 6 -10 7 -32 3 -49z
m-2499 -32 c25 -35 15 -40 -11 -5 -14 19 -25 45 -24 59 1 25 1 25 11 -4 6 -16
17 -39 24 -50z m3389 55 c4 -6 10 -8 13 -6 18 11 3 -44 -18 -65 -12 -13 -20
-18 -16 -11 5 8 -1 12 -18 12 -21 0 -26 5 -26 24 0 14 10 32 22 40 26 19 35
20 43 6z m-1255 -24 c14 -3 3 -3 -23 -2 -27 2 -54 9 -60 15 -7 7 -1 8 24 1 19
-5 45 -11 59 -14z m-2131 -101 c0 -5 -11 8 -24 30 -14 22 -25 45 -25 50 0 6
11 -8 25 -30 13 -22 24 -44 24 -50z m3451 61 c0 -2 -8 -10 -17 -17 -16 -13
-17 -12 -4 4 13 16 21 21 21 13z m-2702 -24 c15 12 15 11 4 -4 -14 -18 -47
-13 -35 5 5 8 8 7 11 -1 3 -10 7 -10 20 0z m154 -9 c-48 -97 -61 -118 -70
-115 -7 1 -13 -2 -13 -8 -1 -5 -2 -14 -3 -20 0 -5 -18 -32 -40 -61 -43 -58
-96 -167 -96 -199 0 -11 -4 -20 -9 -20 -14 0 -19 23 -9 43 5 9 6 23 2 29 -5 7
-3 8 6 3 10 -6 12 -4 7 9 -4 10 -3 15 3 11 6 -3 10 4 10 16 0 28 38 109 51
109 6 0 8 4 4 9 -3 6 4 26 15 46 17 31 19 40 8 54 -12 14 -11 15 5 2 28 -22
21 8 -10 43 -24 26 -24 28 -4 11 22 -18 24 -18 18 -2 -4 10 -3 16 1 13 4 -2
16 2 27 11 19 14 18 14 -13 10 -17 -3 -30 -2 -27 2 2 4 32 9 67 10 34 1 65 4
67 7 10 9 11 3 3 -13z m-198 -19 c3 -8 2 -12 -4 -9 -6 3 -10 10 -10 16 0 14 7
11 14 -7z m231 -53 c-3 -12 -13 -21 -21 -21 -12 0 -12 4 3 24 21 28 28 26 18
-3z m-895 -12 c0 -5 -4 -9 -10 -9 -5 0 -10 7 -10 16 0 8 5 12 10 9 6 -3 10
-10 10 -16z m3050 14 c-1 -5 -30 -39 -66 -78 l-65 -70 58 77 c53 71 74 90 73
71z m-2654 -40 c-8 -15 -15 -25 -16 -21 0 12 23 58 27 54 3 -2 -2 -17 -11 -33z
m1553 -12 c-6 -2 -21 7 -33 19 l-21 23 33 -19 c18 -10 28 -20 21 -23z m468 -3
c-3 -7 -5 -2 -5 12 0 14 2 19 5 13 2 -7 2 -19 0 -25z m-2318 -30 c18 -28 25
-46 17 -39 -22 18 -20 5 3 -27 45 -64 131 -257 131 -294 0 -11 -8 -18 -19 -18
-15 0 -25 16 -45 78 -13 42 -43 122 -65 176 -22 55 -38 103 -35 108 3 4 -2 21
-11 38 -24 47 -11 35 24 -22z m807 27 c-9 -14 -14 -25 -11 -25 9 0 -24 -58
-37 -66 -10 -6 -11 -4 0 7 15 17 16 33 0 23 -6 -4 3 14 22 39 35 49 54 65 26
22z m1029 -143 c0 -76 5 -145 10 -153 6 -8 3 -7 -6 2 -15 16 -39 187 -39 278
0 28 2 31 18 22 15 -8 17 -27 17 -149z m-1106 83 c-58 -74 -78 -91 -49 -43 21
36 84 108 94 108 3 0 -17 -29 -45 -65z m1045 29 c3 -9 6 -27 6 -40 0 -21 -3
-23 -18 -15 -10 5 -102 11 -205 13 -148 2 -189 0 -199 -11 -11 -11 -9 -13 14
-7 15 3 29 2 33 -4 3 -5 24 -7 48 -3 45 6 50 6 177 3 l85 -2 -85 -13 c-47 -7
-105 -18 -130 -25 -67 -18 -187 -76 -213 -103 -12 -13 -65 -52 -117 -87 -52
-34 -115 -79 -140 -99 -25 -20 -39 -28 -31 -18 15 19 2 24 -17 5 -9 -9 -12 -9
-12 0 0 7 6 15 14 18 8 3 34 28 57 57 24 28 37 48 29 43 -44 -23 66 62 125 96
39 23 72 43 74 45 3 1 -6 15 -20 30 -13 14 -18 23 -11 19 6 -4 12 -2 12 4 0 6
3 9 8 7 9 -6 73 28 66 36 -6 6 2 8 99 32 90 22 174 32 268 34 62 1 78 -2 83
-15z m204 9 c-10 -2 -26 -2 -35 0 -10 3 -2 5 17 5 19 0 27 -2 18 -5z m323
-105 c-11 -46 -21 -97 -22 -113 l-1 -30 -13 31 c-11 24 -12 41 -5 65 6 19 15
63 21 97 10 57 13 62 27 49 13 -14 12 -24 -7 -99z m-124 9 c17 -12 30 -25 27
-28 -7 -12 -94 35 -94 50 0 16 22 9 67 -22z m-1351 -89 c-20 -35 -36 -60 -36
-56 0 15 65 138 68 129 2 -6 -13 -39 -32 -73z m-657 22 c0 -10 -3 -8 -9 5 -12
27 -12 43 0 25 5 -8 9 -22 9 -30z m2581 17 c0 -2 -10 -12 -21 -23 -22 -19 -22
-19 -10 4 10 18 31 31 31 19z m-1690 -27 c8 -1 -17 -8 -56 -15 -38 -7 -81 -15
-95 -19 -22 -6 -21 -4 9 22 30 26 36 28 80 21 26 -4 54 -8 62 -9z m-540 -4 c0
-2 -8 -10 -17 -17 -16 -13 -17 -12 -4 4 13 16 21 21 21 13z m-362 -75 c22 -65
11 -66 -13 -1 -14 36 -25 67 -25 70 0 12 28 -39 38 -69z m69 47 c-3 -8 -6 -5
-6 6 -1 11 2 17 5 13 3 -3 4 -12 1 -19z m1998 2 c-3 -5 -1 -18 4 -29 9 -16 8
-18 -7 -14 -10 2 -23 13 -30 23 -10 16 -9 18 5 13 11 -4 14 -3 9 5 -4 7 -1 12
9 12 9 0 13 -4 10 -10z m-1604 -44 c5 3 6 10 3 16 -4 7 -2 8 4 4 8 -5 8 -15 2
-32 -7 -17 -7 -23 0 -19 6 3 10 -2 10 -12 0 -30 -27 -97 -40 -101 -7 -3 -10 0
-7 5 4 6 0 19 -8 29 -19 25 -19 57 2 102 12 27 17 32 20 19 3 -9 9 -15 14 -11z
m2027 -23 c-40 -61 -38 -59 -38 -42 0 13 56 89 65 89 3 0 -10 -21 -27 -47z
m-848 23 c0 -7 11 -25 25 -40 13 -14 22 -33 19 -41 -4 -8 -9 -13 -13 -10 -4 2
-7 -8 -6 -23 2 -15 0 -18 -2 -8 -4 15 -7 16 -13 5 -5 -7 -12 -10 -16 -6 -10
10 -13 137 -3 137 5 0 9 -6 9 -14z m405 -17 c14 -17 23 -34 19 -38 -4 -3 -9
-1 -11 5 -2 6 -10 19 -17 29 -12 17 -13 17 -19 1 -5 -11 -3 -15 5 -10 7 4 8 3
4 -4 -12 -19 -46 -14 -46 6 0 18 18 42 31 42 4 0 19 -14 34 -31z m-526 17 c-2
-2 -45 -28 -94 -59 -70 -43 -113 -61 -188 -80 -53 -14 -94 -21 -91 -16 3 5 -2
6 -10 3 -9 -3 -16 -10 -16 -15 0 -4 -7 -5 -17 -2 -12 5 -14 3 -8 -7 5 -9 4
-11 -4 -6 -14 9 -53 -2 -46 -14 3 -4 -4 -6 -15 -3 -19 5 -18 7 10 24 116 71
350 169 350 147 0 -5 6 -6 13 -1 6 4 20 6 29 5 9 -2 30 4 45 12 25 14 53 22
42 12z m81 -16 c0 -13 -9 -22 -27 -26 -87 -18 -230 -103 -322 -188 -25 -23
-31 -26 -23 -10 24 45 198 171 305 219 64 29 67 30 67 5z m519 -14 c-3 -3 -11
5 -18 17 -13 21 -12 21 5 5 10 -10 16 -20 13 -22z m-1744 -24 c-9 -10 -44 10
-39 23 5 11 9 11 24 -3 11 -9 18 -18 15 -20z m222 1 c-2 -39 -12 -53 -35 -53
-15 0 -9 31 14 68 20 31 24 28 21 -15z m1824 -36 c-7 -7 -12 -5 -17 7 -4 11
-1 21 7 27 17 11 26 -18 10 -34z m-2326 27 c13 -5 14 -8 3 -15 -9 -6 -13 -33
-13 -94 0 -75 -2 -85 -17 -85 -10 0 -18 8 -18 18 -1 9 -5 51 -10 92 -10 87 2
104 55 84z m180 -14 c17 -4 22 -8 12 -9 -10 0 -15 -5 -12 -11 3 -5 2 -10 -4
-10 -5 0 -13 -15 -16 -32 -4 -18 -12 -39 -17 -45 -7 -9 -7 -17 1 -26 16 -21
-48 -49 -86 -37 -15 4 -23 9 -17 9 7 1 11 21 11 54 0 28 3 64 7 79 6 21 4 27
-11 31 -10 3 9 5 42 5 33 0 74 -4 90 -8z m78 -52 c-15 -51 -27 -68 -47 -68 -6
0 0 9 12 20 21 20 21 23 7 53 -12 24 -13 28 -2 14 14 -17 15 -16 20 2 3 13 -1
21 -12 24 -9 3 -4 5 10 6 l27 1 -15 -52z m-388 -16 c30 -6 43 -22 17 -22 -26
0 -62 33 -62 58 0 12 4 10 13 -8 7 -14 21 -26 32 -28z m823 -19 c-12 -21 -36
-58 -53 -83 -46 -67 -91 -150 -105 -194 -20 -61 -61 -147 -53 -111 13 63 78
210 130 293 67 107 132 183 81 95z m1267 -60 c-9 -76 -12 -82 -52 -98 -41 -17
-46 -18 -39 -7 3 5 -4 23 -15 41 -23 38 -21 43 20 45 16 1 27 4 25 7 -2 4 3 9
11 13 11 4 15 -2 16 -22 1 -20 5 -14 17 26 8 28 17 52 20 52 2 0 1 -25 -3 -57z
m-352 -88 c-4 -22 -6 -79 -6 -127 l1 -88 -37 19 c-41 21 -41 24 -25 133 4 29
8 60 8 68 0 8 4 18 8 21 5 3 -3 19 -17 35 -42 48 -28 51 20 4 51 -50 61 -46
15 7 -25 28 -28 36 -18 48 21 23 59 -68 51 -120z m1656 126 c25 -16 2 -29 -41
-24 -24 2 -69 0 -101 -5 -79 -13 -59 3 28 21 86 18 96 19 114 8z m-1056 -30
l38 -16 -30 -47 c-29 -46 -31 -47 -63 -37 -18 6 -39 11 -45 12 -7 0 -13 5 -13
11 0 6 -5 4 -10 -4 -7 -11 -9 -4 -8 25 2 22 -1 51 -6 64 -8 23 -8 23 45 16 30
-4 71 -14 92 -24z m-2271 -16 c2 -19 0 -35 -4 -35 -4 0 -8 16 -8 35 0 19 2 35
4 35 2 0 6 -16 8 -35z m-185 -85 c8 -106 -13 -118 -22 -13 -4 43 -9 85 -10 93
-1 8 0 19 3 24 11 19 24 -29 29 -104z m720 87 c-10 -7 -50 -36 -88 -64 -68
-51 -89 -62 -89 -45 0 8 179 123 189 121 3 0 -2 -6 -12 -12z m1539 -45 c-18
-34 -53 -38 -48 -6 5 27 12 31 22 14 8 -12 12 -8 22 19 8 19 14 27 16 18 2 -9
-4 -29 -12 -45z m34 24 c-15 -42 -11 -55 6 -17 8 19 17 32 20 29 6 -7 -6 -58
-15 -59 -48 -6 -50 -6 -40 12 5 10 14 30 19 45 6 15 13 25 16 22 2 -3 0 -17
-6 -32z m215 -13 c-9 -20 -20 -42 -26 -49 -14 -17 17 -12 34 6 10 10 9 11 -3
5 -8 -5 -11 -4 -7 0 14 16 36 14 30 -3 -4 -10 -2 -13 5 -8 8 5 10 1 5 -10 -4
-12 -3 -15 5 -10 8 5 10 1 5 -10 -4 -11 -3 -15 5 -11 6 4 13 21 17 37 7 33 14
37 33 18 7 -7 12 -8 12 -3 0 12 42 -50 63 -94 25 -51 22 -66 -20 -84 l-38 -15
40 5 c23 3 56 18 79 36 l39 31 -19 -32 c-10 -18 -21 -32 -24 -32 -4 0 -15 -7
-26 -15 -18 -14 -18 -14 3 -10 18 3 24 -2 29 -23 3 -15 8 -33 10 -40 2 -7 -1
-23 -8 -35 -7 -12 -11 -31 -10 -42 2 -11 -6 -29 -16 -40 -10 -11 -17 -26 -14
-33 2 -7 0 -12 -5 -11 -4 1 -21 0 -38 -1 l-30 -2 37 -12 c49 -15 58 -26 22
-27 -16 0 -24 -3 -18 -5 7 -3 9 -15 6 -27 -9 -34 -28 -67 -35 -60 -4 3 -7 2
-7 -3 0 -14 -57 -74 -64 -67 -3 4 -6 1 -6 -6 0 -7 -4 -10 -9 -7 -5 4 -11 3
-13 -1 -5 -13 -65 -43 -85 -43 -15 0 -16 -2 -3 -11 12 -8 10 -9 -7 -4 -12 3
-39 2 -59 -4 -28 -8 -42 -7 -53 2 -12 10 -14 9 -8 -5 3 -10 2 -18 -3 -18 -6 0
-10 6 -10 14 0 8 -8 12 -23 9 -14 -3 -29 2 -36 11 -12 14 -7 16 52 16 110 0
215 68 287 186 31 52 35 65 38 149 3 70 1 99 -11 122 -9 17 -14 32 -12 35 7 6
-82 116 -103 127 -34 18 -40 -3 -9 -33 17 -15 27 -21 24 -12 -13 34 10 13 46
-40 49 -74 61 -122 53 -212 -7 -83 -26 -127 -86 -195 -63 -71 -146 -110 -235
-111 -60 -1 -80 4 -135 31 -85 42 -154 111 -180 181 -19 49 -20 64 -11 143 6
49 19 108 29 131 24 55 94 125 133 133 16 4 27 10 25 14 -6 8 6 10 117 15 48
2 87 -1 87 -5 0 -5 12 -7 28 -3 16 3 22 2 15 -3 -9 -6 -4 -12 17 -20 21 -8 28
-8 23 0 -4 7 0 8 11 4 11 -4 15 -3 10 4 -3 6 -15 9 -25 6 -11 -3 -19 -3 -19
-1 0 5 84 114 88 114 1 0 -5 -17 -13 -37z m-1330 16 c44 -12 98 -49 73 -49 -9
0 -35 7 -58 15 -70 25 -101 20 -132 -22 -16 -20 -28 -46 -28 -57 0 -24 35 -86
49 -86 5 0 38 -28 73 -63 78 -77 141 -128 193 -156 38 -20 38 -21 12 -21 -15
0 -27 4 -27 10 0 5 -7 6 -17 3 -11 -4 -14 -3 -9 5 4 7 2 12 -6 12 -12 0 -32
15 -103 78 -17 15 -55 47 -85 72 -71 58 -78 67 -85 116 -8 47 3 73 48 122 34
35 43 37 102 21z m2045 7 c0 -2 -7 -7 -16 -10 -8 -3 -12 -2 -9 4 6 10 25 14
25 6z m-91 -19 c-2 -2 -26 -16 -54 -32 -36 -20 -46 -23 -35 -10 8 10 28 24 45
31 27 12 54 19 44 11z m-1105 -33 c-5 -20 -4 -25 6 -19 9 5 10 2 5 -14 -4 -13
-4 -34 0 -49 7 -25 8 -26 15 -7 6 13 9 15 9 5 0 -8 -12 -30 -27 -47 l-27 -33
-33 40 c-19 23 -26 37 -17 33 12 -4 16 -1 13 13 -2 13 3 19 14 18 10 -1 16 2
13 6 -5 8 24 80 32 80 2 0 0 -12 -3 -26z m1409 9 c9 -8 -22 -43 -39 -43 -17 0
-27 18 -20 35 5 15 47 21 59 8z m-3356 -81 c2 -22 -1 -43 -6 -46 -9 -6 -18 17
-36 99 l-6 30 22 -22 c13 -13 23 -37 26 -61z m2933 58 c0 -5 -5 -10 -11 -10
-5 0 -7 5 -4 10 3 6 8 10 11 10 2 0 4 -4 4 -10z m-1348 -47 c-22 -27 -43 -58
-47 -70 -6 -23 -20 -30 -28 -15 -2 4 2 18 9 32 8 14 14 21 14 15 0 -5 8 5 17
23 8 18 18 31 20 28 3 -2 13 4 24 15 36 36 30 19 -9 -28z m1252 -2 c-32 -21
-61 -37 -63 -35 -2 2 6 16 18 33 14 20 32 31 54 34 17 2 36 5 41 5 5 1 -17
-15 -50 -37z m-2188 11 c-3 -5 -33 -26 -67 -46 -48 -29 -64 -34 -70 -24 -20
31 -2 46 50 39 7 -2 10 3 6 9 -3 6 -3 10 2 8 17 -4 73 14 73 24 0 6 3 9 6 5 3
-3 3 -10 0 -15z m2443 -27 c0 -5 -4 -3 -9 5 -5 8 -9 22 -9 30 0 16 17 -16 18
-35z m-2084 15 c3 -5 1 -10 -4 -10 -6 0 -11 5 -11 10 0 6 2 10 4 10 3 0 8 -4
11 -10z m200 -10 c38 -42 -17 -106 -64 -74 -25 18 -27 51 -4 76 21 24 45 23
68 -2z m-1025 6 c0 -2 -7 -9 -15 -16 -13 -11 -14 -10 -9 4 5 14 24 23 24 12z
m234 -84 c-19 -45 -32 -87 -28 -94 4 -7 3 -8 -4 -4 -7 4 -12 16 -12 28 0 20
70 162 76 155 2 -2 -12 -40 -32 -85z m1487 -76 c-12 -33 -21 -83 -22 -121 -1
-36 -4 -65 -6 -65 -9 0 -42 45 -43 58 0 6 -5 12 -12 12 -6 0 -8 3 -5 7 4 3 -1
15 -10 25 -16 18 -16 18 3 12 18 -7 18 -7 -1 16 l-20 23 45 -22 45 -22 -32 29
c-19 16 -33 38 -33 51 0 13 4 19 10 16 7 -4 9 3 6 19 -3 15 -1 24 4 21 4 -3
10 2 14 10 3 9 12 12 23 8 12 -5 7 6 -14 30 -50 58 -39 58 18 1 l51 -52 -21
-56z m530 137 c13 -16 12 -17 -3 -4 -10 7 -18 15 -18 17 0 8 8 3 21 -13z
m-1866 -48 c-28 -24 -53 -44 -57 -45 -6 0 -12 15 -23 63 -5 18 -3 17 10 -5 9
-16 18 -28 20 -28 3 0 24 14 47 30 59 43 60 37 3 -15z m-199 -45 c-24 -52 -71
-110 -90 -110 -5 0 0 10 12 23 12 13 22 33 22 44 0 13 8 24 20 28 11 4 18 11
15 16 -4 5 -2 9 3 9 5 0 15 11 22 25 24 45 21 19 -4 -35z m2562 35 c-3 -3 -9
2 -12 12 -6 14 -5 15 5 6 7 -7 10 -15 7 -18z m-1698 11 c0 -9 -32 -36 -42 -36
-6 0 0 9 13 20 25 21 29 23 29 16z m-1150 -20 c0 -2 -42 -20 -92 -41 -97 -38
-178 -80 -190 -99 -9 -13 -10 -42 -2 -33 4 3 19 0 35 -9 16 -8 32 -15 36 -17
5 -1 7 -6 5 -11 -2 -5 5 -6 14 -2 21 8 44 -11 44 -36 0 -12 4 -17 12 -12 6 4
8 3 5 -3 -4 -6 0 -27 8 -47 70 -168 -107 -461 -323 -533 -26 -9 -49 -18 -51
-20 -3 -2 -10 -38 -17 -81 -9 -61 -12 -68 -13 -35 0 23 4 65 10 93 9 43 14 50
35 50 75 0 252 138 301 234 49 97 70 203 53 267 -21 79 -110 134 -173 109 -18
-7 -13 -9 25 -9 51 -1 78 -8 78 -22 0 -5 -8 -9 -17 -10 -10 0 -2 -5 17 -12 52
-18 67 -67 51 -161 -27 -161 -115 -279 -264 -352 -70 -35 -79 -37 -123 -28
-60 12 -84 42 -94 121 -7 52 -8 54 -9 16 0 -23 3 -53 9 -67 13 -36 -6 -34 -24
3 -9 16 -19 57 -24 92 l-10 64 -1 -54 c-1 -73 26 -128 81 -164 23 -15 48 -27
56 -27 9 0 11 -7 7 -22 -11 -35 -28 -48 -20 -15 5 19 3 27 -7 27 -7 0 -30 11
-51 25 -20 14 -37 23 -37 20 0 -16 -31 27 -46 64 l-16 41 -72 -66 c-54 -51
-72 -62 -74 -49 -3 15 -7 14 -28 -6 l-25 -23 26 48 c25 47 81 126 109 157 25
25 68 132 63 156 -2 13 -1 23 2 23 3 0 15 19 26 42 24 50 108 139 153 162 19
10 31 20 29 23 -6 5 -19 -1 -104 -46 -47 -25 -91 -71 -125 -131 -29 -51 -45
-53 -19 -2 46 89 76 118 179 171 119 61 263 123 269 117 3 -3 -2 -15 -11 -28
-9 -12 -16 -38 -15 -58 0 -34 1 -34 20 19 10 30 26 62 34 71 9 10 64 36 123
59 59 23 116 46 127 51 22 10 35 12 35 6z m887 -70 c-3 -7 -2 -17 3 -22 5 -5
-9 -10 -33 -10 -53 -2 -96 -8 -91 -13 2 -2 -10 -19 -26 -38 -22 -25 -30 -44
-30 -72 0 -43 -8 -55 -25 -41 -15 12 -7 59 18 107 28 54 102 101 161 102 20 1
27 -3 23 -13z m-1240 -2 c-3 -3 -12 -4 -19 -1 -8 3 -5 6 6 6 11 1 17 -2 13 -5z
m713 -44 c-26 -36 -26 -36 -41 -7 -11 19 -10 20 2 10 12 -10 18 -8 32 7 26 31
31 24 7 -10z m1030 -4 c0 -2 -8 -10 -17 -17 -16 -13 -17 -12 -4 4 13 16 21 21
21 13z m-30 -39 c0 -2 -10 -12 -22 -23 l-23 -19 19 23 c18 21 26 27 26 19z
m283 -82 c31 -44 -5 -13 -45 39 -31 40 -31 40 -4 16 15 -14 37 -38 49 -55z
m-83 -22 c-11 -17 -11 -17 -6 0 3 10 7 33 8 50 l1 32 4 -32 c2 -18 -1 -41 -7
-50z m-653 13 c-31 -46 -137 -82 -137 -45 0 6 6 9 13 6 19 -7 88 25 111 52 25
27 33 19 13 -13z m255 0 c22 -10 39 -11 49 -5 21 13 39 11 39 -6 0 -7 20 -31
45 -51 24 -21 42 -40 40 -42 -2 -3 -29 16 -59 42 -53 45 -71 54 -78 39 -2 -5
-17 -19 -33 -33 -21 -18 -25 -19 -14 -5 33 41 29 48 -6 10 -20 -22 -33 -45
-30 -54 7 -19 -14 -81 -28 -81 -8 0 -8 3 0 11 6 6 9 26 6 45 -4 23 0 42 12 60
9 15 12 23 6 20 -6 -4 -11 -3 -11 3 0 6 9 15 20 21 23 13 27 35 4 26 -8 -3
-12 -2 -9 4 8 13 6 13 47 -4z m-502 -46 c0 -18 -9 -31 -31 -44 -17 -10 -33
-15 -37 -11 -4 4 -2 10 5 12 7 2 10 10 7 17 -3 7 4 21 16 31 11 10 20 25 20
34 0 14 2 14 10 1 5 -8 10 -26 10 -40z m1114 19 c26 4 34 -4 45 -38 14 -49
100 -145 153 -172 33 -17 38 -24 32 -42 -8 -27 -3 -25 -47 -19 -31 3 -35 7
-26 18 9 11 8 14 -4 14 -9 0 -27 5 -41 12 -20 9 -23 14 -15 25 9 10 9 12 -3 8
-17 -7 -69 48 -64 68 1 6 1 9 -1 5 -10 -17 -23 -6 -23 18 0 14 -4 23 -10 19
-6 -4 -10 7 -10 27 0 18 -3 44 -6 58 -4 17 -3 21 4 12 5 -8 12 -13 16 -13z
m-1609 -23 c15 -15 21 -118 10 -184 -18 -105 -197 -213 -218 -132 -3 11 -12
20 -21 20 -22 0 -20 26 6 69 30 50 189 241 200 241 5 0 16 -6 23 -14z m1044 2
c-2 -2 -17 -14 -34 -28 l-30 -25 24 28 c14 15 29 27 34 27 6 0 8 -1 6 -2z
m-652 -40 c-3 -8 -6 -5 -6 6 -1 11 2 17 5 13 3 -3 4 -12 1 -19z m958 -8 c-10
-11 -22 -20 -28 -20 -5 0 1 9 14 20 31 25 37 25 14 0z m-158 -30 c13 0 23 -6
23 -14 0 -12 -6 -13 -32 -4 -38 13 -58 26 -58 40 0 5 10 2 22 -6 12 -9 33 -16
45 -16z m-2118 -91 c17 -6 31 -15 31 -21 0 -6 -8 -7 -17 -3 -10 4 -26 10 -35
12 -10 3 -18 9 -18 14 0 11 1 11 39 -2z m-73 -14 c-23 -17 -36 -19 -36 -6 0 5
8 12 18 14 32 9 37 6 18 -8z m-23 -63 c-9 -24 -27 -45 -46 -56 l-32 -17 28 23
c25 22 39 57 17 43 -6 -3 -7 1 -3 10 4 12 8 13 13 4 6 -8 11 -5 19 10 19 34
21 24 4 -17z m-25 -179 c-34 -36 -142 -259 -189 -393 -38 -106 -51 -118 -25
-25 36 133 135 344 188 401 22 24 43 44 46 44 3 0 -6 -12 -20 -27z m-223 -263
c3 -5 -3 -10 -14 -10 -12 0 -21 5 -21 10 0 6 6 10 14 10 8 0 18 -4 21 -10z
m449 -69 c-105 -69 -121 -83 -198 -178 -32 -40 -60 -73 -62 -73 -14 0 73 115
121 161 60 57 190 147 214 148 8 1 -26 -25 -75 -58z m740 21 c-21 -21 -61 -56
-88 -77 l-48 -39 -19 23 c-11 13 -19 28 -19 35 0 7 3 8 8 0 6 -8 48 -11 72 -5
3 0 32 23 65 51 72 59 84 64 29 12z m1636 -9 c0 -15 -2 -16 -10 -3 -7 11 -10
6 -9 -20 0 -29 2 -31 9 -15 7 16 9 17 9 3 1 -26 -17 -31 -29 -8 -8 14 -8 26 0
40 13 25 30 26 30 3z m58 -10 c-6 -7 -14 -10 -19 -7 -15 9 -10 20 10 20 15 0
17 -3 9 -13z m-948 4 c0 -2 -10 -12 -22 -23 l-23 -19 19 23 c18 21 26 27 26
19z m-170 -180 l-102 -114 -116 -37 c-64 -20 -124 -36 -132 -36 -8 1 19 11 60
24 138 42 168 61 279 172 57 57 105 104 108 104 2 0 -42 -51 -97 -113z m-1547
66 c-7 -2 -13 -9 -13 -14 0 -4 7 -6 15 -3 21 8 19 -3 -10 -53 -27 -45 -33 -51
-32 -30 1 32 -4 48 -13 42 -5 -3 -10 -1 -10 4 0 6 -1 14 -1 18 -2 9 51 42 66
41 6 0 4 -2 -2 -5z m-187 -253 c13 -41 21 -76 19 -78 -14 -14 -80 192 -68 212
4 6 11 -5 17 -24 5 -19 19 -69 32 -110z m1920 3 c-4 -5 -44 -48 -89 -96 -88
-97 -109 -111 -177 -122 -25 -4 -89 -18 -143 -32 -54 -13 -102 -23 -108 -21
-13 4 190 58 220 58 36 0 93 36 150 94 30 30 58 53 62 50 4 -2 10 4 14 13 3
10 20 28 38 40 34 22 45 28 33 16z m-1992 -120 c18 -123 19 -136 6 -131 -14 4
-15 11 -23 111 -6 63 8 79 17 20z m131 -62 c4 -39 3 -67 -5 -81 -11 -21 -12
-21 -25 -3 -17 22 -19 69 -4 112 16 46 26 38 34 -28z m390 -20 c-6 -5 -26 -11
-45 -15 -35 -5 -35 -5 5 9 50 17 51 17 40 6z m-202 -28 c3 -16 14 -74 26 -131
12 -57 19 -108 15 -113 -13 -21 -42 -8 -48 22 -12 64 -19 249 -9 249 6 0 13
-12 16 -27z m301 -60 c9 -25 14 -48 12 -50 -3 -4 -46 90 -46 102 0 19 20 -12
34 -52z m793 1 c-3 -3 -12 -4 -19 -1 -8 3 -5 6 6 6 11 1 17 -2 13 -5z m-40
-10 c-3 -3 -12 -4 -19 -1 -8 3 -5 6 6 6 11 1 17 -2 13 -5z m-1247 -170 c6 -25
5 -43 -2 -52 -18 -21 -29 0 -35 64 -5 55 -4 58 12 43 9 -9 20 -34 25 -55z
m1800 62 c0 -2 -12 -11 -27 -20 l-28 -17 24 20 c23 21 31 25 31 17z m-62 -38
c-5 -13 -59 -21 -203 -31 -92 -5 -59 4 95 26 52 8 99 15 103 16 5 0 7 -5 5
-11z m-1464 -189 c15 -73 34 -152 42 -178 15 -49 9 -61 -32 -61 -18 0 -24 12
-43 98 -28 122 -50 260 -43 267 3 3 15 5 27 5 20 0 24 -12 49 -131z m-264 81
c-6 -11 -7 -20 -2 -20 4 0 8 -9 8 -21 0 -19 -1 -19 -13 -3 -22 30 -16 55 15
63 1 1 -2 -8 -8 -19z m473 -97 c-7 -2 -19 -2 -25 0 -7 3 -2 5 12 5 14 0 19 -2
13 -5z m-73 -13 c-34 -11 -60 -11 -35 0 11 5 29 8 40 8 16 0 15 -2 -5 -8z
m1373 -17 c-7 -2 -21 -2 -30 0 -10 3 -4 5 12 5 17 0 24 -2 18 -5z m-295 -10
c-15 -2 -42 -2 -60 0 -18 2 -6 4 27 4 33 0 48 -2 33 -4z m160 0 c-16 -2 -40
-2 -55 0 -16 2 -3 4 27 4 30 0 43 -2 28 -4z m552 -251 c-17 -51 -30 -103 -30
-117 0 -16 -6 -25 -16 -25 -9 0 -14 6 -12 13 3 6 15 44 27 82 25 78 52 147 57
142 2 -2 -10 -44 -26 -95z m-1692 63 c-2 -3 -40 -9 -84 -15 -43 -6 -84 -13
-91 -15 -14 -5 -7 -33 58 -234 22 -68 39 -127 37 -133 -2 -5 -20 22 -40 60
-32 59 -50 116 -83 269 -3 12 -15 25 -28 29 -16 6 2 12 73 25 95 17 168 23
158 14z m1652 -235 c0 -5 -7 -10 -15 -10 -8 0 -15 5 -15 10 0 6 7 10 15 10 8
0 15 -4 15 -10z m-1841 -40 c11 -24 11 -24 -3 -6 -9 11 -16 24 -16 30 0 12 5
7 19 -24z m1846 -47 c-9 -37 -34 -75 -44 -68 -9 5 0 63 13 84 4 6 14 11 23 11
12 0 14 -6 8 -27z m-1865 -2 c0 -5 -9 -11 -20 -14 -22 -6 -28 8 -7 16 19 8 27
8 27 -2z m1772 -38 c-6 -10 -18 -54 -26 -97 -14 -64 -15 -93 -6 -154 11 -78 8
-94 -13 -73 -18 19 -14 194 7 256 20 60 38 96 43 91 3 -2 0 -13 -5 -23z m212
-21 c17 -33 22 -53 15 -63 -5 -8 -9 -9 -9 -4 0 6 -4 4 -9 -4 -7 -11 -11 -10
-19 5 -21 41 -25 114 -7 114 3 0 16 -22 29 -48z m-179 -114 c9 -113 5 -143
-20 -143 -18 0 -20 7 -20 75 1 83 11 150 25 150 4 0 11 -37 15 -82z m-835 -14
c29 -126 31 -155 4 -74 -25 76 -43 170 -30 159 4 -4 16 -42 26 -85z m-865 -5
c28 -91 30 -102 13 -97 -7 3 -17 31 -24 64 -6 32 -14 71 -19 87 -4 15 -5 27
-2 27 4 0 18 -36 32 -81z m-55 67 c0 -9 -30 -14 -35 -6 -4 6 3 10 14 10 12 0
21 -2 21 -4z m-208 -68 c-19 -36 -37 -54 -52 -56 -21 -4 -21 -2 9 42 26 38 54
64 69 66 2 0 -9 -24 -26 -52z m153 -82 c-27 -7 -54 -10 -59 -7 -16 8 26 20 69
19 l40 0 -50 -12z m338 -33 c-7 -2 -21 -2 -30 0 -10 3 -4 5 12 5 17 0 24 -2
18 -5z m-611 -52 c-28 -21 -49 -41 -47 -45 3 -3 2 -4 -2 -1 -4 3 -24 -11 -45
-32 -57 -55 -46 -30 15 34 46 49 93 81 121 83 5 0 -14 -17 -42 -39z m402 -22
c9 -93 7 -189 -4 -189 -5 0 -10 15 -10 33 0 19 -3 75 -6 125 -8 105 9 131 20
31z m-211 35 c11 -12 -26 -64 -66 -91 -31 -21 -40 -24 -50 -13 -10 10 -9 11 2
5 9 -5 12 -4 7 3 -4 7 -15 12 -23 12 -13 0 -9 8 13 31 39 42 100 70 117 53z
m1777 -4 c0 -5 -7 -10 -16 -10 -8 0 -12 5 -9 10 3 6 10 10 16 10 5 0 9 -4 9
-10z m-2056 -35 c-9 -14 -19 -23 -22 -20 -5 4 26 45 35 45 2 0 -4 -11 -13 -25z
m1936 0 c-50 -19 -22 -18 38 1 28 9 57 14 65 11 12 -4 32 -65 25 -73 -2 -1
-28 4 -58 12 -30 8 -67 14 -82 14 -15 0 -28 4 -28 8 0 8 -84 -8 -94 -18 -2 -3
35 -6 82 -6 48 -1 101 -7 117 -13 l30 -13 -48 -18 c-27 -10 -55 -24 -63 -31
-11 -9 -27 -9 -71 0 -76 15 -150 14 -206 -3 -26 -8 -47 -12 -47 -10 0 8 138
84 152 84 9 0 24 7 33 16 20 20 120 53 160 53 l30 -1 -35 -13z m-3094 -26 c3
-6 17 -8 31 -4 37 9 63 -3 63 -29 0 -59 -62 -62 -113 -7 -23 25 -32 41 -24 44
21 9 36 7 43 -4z m1461 -46 c-3 -10 -5 -2 -5 17 0 19 2 27 5 18 2 -10 2 -26 0
-35z m-52 -102 c-14 -28 -27 -51 -29 -51 -3 0 4 30 16 68 33 111 33 111 36 70
2 -24 -5 -53 -23 -87z m52 17 c-2 -13 -4 -3 -4 22 0 25 2 35 4 23 2 -13 2 -33
0 -45z m-267 42 c0 -5 -4 -10 -10 -10 -5 0 -10 5 -10 10 0 6 5 10 10 10 6 0
10 -4 10 -10z m133 -84 l21 -31 -37 33 c-21 17 -53 39 -72 47 -19 7 -35 19
-35 25 0 19 100 -42 123 -74z m1909 50 c2 -19 1 -33 -3 -30 -4 2 -9 -1 -11 -8
-3 -8 -24 -4 -70 13 -37 13 -65 26 -62 29 8 8 86 28 115 29 23 1 27 -4 31 -33z
m-3464 -38 c-21 -39 -23 -263 -3 -368 9 -51 14 -94 11 -97 -3 -3 -7 5 -10 18
-37 172 -38 185 -34 308 6 134 12 161 34 161 12 0 13 -4 2 -22z m178 -3 c-3
-9 -11 -87 -18 -173 -10 -139 -10 -168 5 -242 9 -46 15 -85 13 -88 -3 -2 -11
9 -19 25 -22 43 -30 164 -18 303 12 146 20 190 33 190 6 0 7 -7 4 -15z m82 -8
c11 -12 -1 -143 -13 -156 -12 -11 -19 15 -23 89 -4 67 -2 80 10 80 9 0 20 -6
26 -13z m1042 -42 c-44 -45 -64 -60 -39 -28 17 21 72 72 79 73 2 0 -16 -20
-40 -45z m360 18 c0 -5 -5 -15 -10 -23 -8 -12 -10 -11 -10 8 0 12 5 22 10 22
6 0 10 -3 10 -7z m-1210 -39 c12 -36 6 -162 -9 -177 -5 -5 -11 20 -15 55 -4
35 -12 78 -17 96 -6 18 -8 39 -5 47 10 27 34 16 46 -21z m153 -1 c15 -7 27
-16 27 -19 0 -13 -66 9 -85 28 l-20 20 25 -7 c14 -4 37 -14 53 -22z m927 22
c0 -2 -10 -9 -22 -15 -22 -11 -22 -10 -4 4 21 17 26 19 26 11z m400 -15 c6
-11 8 -20 6 -20 -3 0 -10 9 -16 20 -6 11 -8 20 -6 20 3 0 10 -9 16 -20z
m-1566 -152 c-4 -109 -3 -181 5 -218 7 -30 13 -62 15 -70 1 -8 10 -30 20 -48
10 -19 15 -36 12 -39 -2 -3 -14 13 -26 36 -11 23 -17 41 -14 41 4 0 -1 9 -12
21 -17 19 -19 38 -18 213 0 175 4 226 19 226 3 0 2 -73 -1 -162z m871 108 c39
-19 86 -48 105 -65 31 -28 27 -27 -35 11 -119 74 -120 74 -168 33 -45 -39 -59
-44 -50 -17 8 23 54 72 68 72 6 0 42 -15 80 -34z m243 29 c-2 -1 -12 -7 -24
-13 -15 -8 -21 -8 -21 1 0 7 11 13 24 13 14 1 23 1 21 -1z m1373 -49 c-9 -11
-9 -15 1 -18 9 -3 4 -15 -15 -37 -25 -30 -31 -44 -28 -63 0 -5 -28 -8 -64 -8
l-65 0 43 38 c64 58 121 102 131 102 4 0 3 -6 -3 -14z m259 -7 c0 -18 -29 -80
-46 -96 -16 -16 -16 -16 -9 6 6 19 4 23 -8 18 -18 -7 -14 9 17 60 17 28 46 36
46 12z m-2445 -28 c-3 -6 -11 -11 -17 -11 -6 0 -6 6 2 15 14 17 26 13 15 -4z
m332 -17 c29 -15 53 -29 53 -33 0 -3 -16 -7 -35 -9 -20 -1 -62 -13 -95 -27
-70 -29 -74 -30 -66 -9 3 8 2 12 -4 9 -6 -3 -10 -2 -10 3 0 13 78 92 91 92 7
0 36 -12 66 -26z m23 6 c8 -5 11 -10 5 -10 -5 0 -17 5 -25 10 -8 5 -10 10 -5
10 6 0 17 -5 25 -10z m3127 -12 c-3 -8 -6 -5 -6 6 -1 11 2 17 5 13 3 -3 4 -12
1 -19z m-1997 -36 c-16 -3 -80 23 -80 32 0 1 22 -5 49 -13 30 -10 42 -17 31
-19z m2019 -92 c0 -19 -9 -60 -19 -90 -19 -55 -19 -55 -14 -12 3 23 7 50 9 60
2 9 4 49 5 87 2 65 3 67 11 30 4 -22 8 -56 8 -75z m-1891 83 c-15 -2 -42 -2
-60 0 -18 2 -6 4 27 4 33 0 48 -2 33 -4z m-1593 -73 c16 -16 26 -32 24 -35 -3
-2 -21 11 -39 30 -19 19 -29 35 -24 35 6 0 23 -13 39 -30z m1924 26 c-2 -2
-20 -11 -39 -20 l-35 -17 25 20 c14 11 31 21 39 21 8 0 12 -2 10 -4z m-1149
-31 c0 -8 -2 -15 -4 -15 -2 0 -6 7 -10 15 -3 8 -1 15 4 15 6 0 10 -7 10 -15z
m2050 -33 c0 -12 16 -25 50 -39 28 -12 54 -22 58 -23 20 -5 42 -22 37 -30 -6
-10 22 -40 38 -40 7 1 1 10 -12 20 -13 11 -19 20 -14 20 13 0 44 -35 37 -42
-3 -3 11 -23 30 -44 19 -21 32 -42 29 -48 -3 -5 -1 -6 4 -3 21 13 63 -68 63
-120 0 -6 -39 10 -87 36 -49 26 -105 56 -127 66 -35 18 -40 27 -65 105 -15 47
-35 99 -44 117 -20 37 -21 43 -7 43 6 0 10 -8 10 -18z m76 -7 c65 -27 194
-139 194 -168 0 -3 -28 23 -62 57 -35 34 -79 69 -98 77 -84 37 -104 48 -87 48
10 1 33 -6 53 -14z m-172 -6 c-4 -8 1 -9 17 -4 13 3 19 3 12 -2 -8 -6 -7 -13
4 -28 15 -20 15 -20 9 0 -3 11 -2 26 3 34 7 11 12 7 24 -15 21 -42 60 -164 54
-170 -3 -3 -31 8 -63 24 -55 27 -119 48 -136 44 -4 -1 -5 5 -2 12 3 8 11 14
17 12 7 -1 9 -1 5 1 -5 3 -8 12 -8 21 -1 11 -6 8 -16 -10 -8 -16 -17 -28 -20
-28 -15 0 44 83 71 100 35 23 39 24 29 9z m-1934 -43 c0 -3 -4 -8 -10 -11 -5
-3 -10 -1 -10 4 0 6 5 11 10 11 6 0 10 -2 10 -4z m-1460 -140 c0 -51 -6 -43
-14 19 -5 36 -4 46 3 35 6 -8 11 -33 11 -54z m2178 37 c-10 -2 -28 -2 -40 0
-13 2 -5 4 17 4 22 1 32 -1 23 -4z m1228 -29 c18 -14 18 -14 -6 -3 -31 14 -36
19 -24 19 6 0 19 -7 30 -16z m-3236 -58 c0 -39 -7 -31 -19 24 -9 40 -8 43 5
26 8 -11 14 -33 14 -50z m3650 10 c0 -6 -7 -2 -15 8 -8 11 -15 25 -15 30 0 6
7 2 15 -8 8 -11 15 -25 15 -30z m-2616 15 c18 -7 16 -9 -14 -19 -18 -7 -34
-12 -36 -12 -1 0 0 9 3 20 6 21 16 23 47 11z m2322 -26 c24 -18 7 -19 -26 0
-16 9 -19 14 -9 15 8 0 24 -7 35 -15z m214 -96 c38 -23 86 -59 78 -59 -3 0
-54 29 -114 65 -107 64 -131 75 -119 55 3 -5 1 -10 -4 -10 -6 0 -11 9 -11 20
0 19 5 18 68 -15 37 -20 83 -45 102 -56z m90 69 c0 -7 10 -23 23 -36 12 -14
16 -22 8 -17 -11 6 -12 1 -6 -31 4 -21 4 -36 1 -33 -11 11 -45 140 -35 134 5
-4 9 -11 9 -17z m367 -75 c-3 -10 -5 -2 -5 17 0 19 2 27 5 18 2 -10 2 -26 0
-35z m-1613 -45 c-2 -46 -5 -93 -8 -105 -3 -13 0 -25 5 -29 11 -6 -42 -44 -61
-44 -14 0 -12 47 5 114 14 54 51 146 59 146 2 0 2 -37 0 -82z m756 51 c13 -9
12 -10 -2 -5 -21 6 -23 -4 -5 -24 10 -12 9 -12 -5 -1 -18 13 -25 41 -10 41 4
0 14 -5 22 -11z m80 -41 c0 -5 4 -7 9 -4 11 7 41 -3 41 -14 0 -5 -8 -11 -17
-13 -15 -4 -15 -5 -2 -6 9 0 22 6 29 14 7 8 17 15 23 15 5 0 3 -8 -7 -18 -15
-18 -15 -19 7 -29 16 -8 25 -7 34 2 12 13 7 25 -9 25 -5 0 -6 -4 -3 -10 3 -5
-1 -10 -9 -10 -23 0 -19 18 5 25 26 9 37 -2 45 -43 l6 -32 -95 39 c-101 41
-150 66 -112 58 11 -3 29 -8 40 -11 19 -7 19 -6 2 6 -52 37 -53 38 -19 27 17
-6 32 -15 32 -21z m777 -20 c-3 -8 -6 -5 -6 6 -1 11 2 17 5 13 3 -3 4 -12 1
-19z m-329 -39 c-3 -8 -7 -3 -11 10 -4 17 -3 21 5 13 5 -5 8 -16 6 -23z m-674
-1 c-4 -7 -7 -27 -6 -45 3 -37 0 -38 -27 -21 -15 9 -25 9 -45 0 -23 -10 -26
-9 -26 7 0 21 25 46 60 60 35 14 53 13 44 -1z m439 -2 c3 3 12 2 19 -2 7 -5
18 -9 25 -10 6 -1 19 -7 30 -13 14 -8 14 -11 3 -11 -13 0 -13 -1 0 -11 13 -9
13 -10 0 -6 -8 2 -14 10 -12 17 1 6 -3 10 -10 7 -7 -2 -12 -10 -10 -16 1 -7
-2 -10 -7 -7 -5 4 -12 2 -16 -4 -3 -6 4 -11 17 -11 53 -3 70 -7 81 -18 8 -8 8
-11 -1 -11 -18 0 -14 -18 6 -24 9 -3 21 -5 26 -5 5 0 12 -5 16 -11 11 -18 30
-3 24 18 -5 14 -4 15 5 2 6 -8 11 -28 11 -44 0 -27 -1 -28 -17 -14 -10 9 -44
30 -76 48 -32 18 -54 36 -50 42 3 7 1 8 -5 4 -6 -4 -29 3 -52 14 -34 17 -40
25 -40 51 0 25 3 29 13 20 8 -6 17 -8 20 -5z m564 -8 c-3 -8 -6 -5 -6 6 -1 11
2 17 5 13 3 -3 4 -12 1 -19z m-1858 -71 c-5 -43 -7 -82 -3 -88 3 -6 -5 -22
-17 -37 -13 -14 -16 -20 -6 -13 9 8 20 11 23 8 10 -10 -32 -26 -45 -18 -14 9
-9 63 11 131 12 42 39 102 44 98 1 -2 -2 -38 -7 -81z m1405 75 c3 -5 -1 -9 -9
-9 -8 0 -12 4 -9 9 3 4 7 8 9 8 2 0 6 -4 9 -8z m134 -127 c-1 -103 -6 -88 -10
32 -2 44 0 76 4 70 4 -7 7 -52 6 -102z m-1900 40 c0 -16 -2 -15 -8 5 -4 14 -8
34 -8 45 0 16 2 15 8 -5 4 -14 8 -34 8 -45z m947 -77 c4 -17 3 -28 -3 -28 -5
0 -12 24 -16 53 -8 72 -5 114 4 52 4 -27 11 -62 15 -77z m902 85 c-3 -10 -5
-4 -5 12 0 17 2 24 5 18 2 -7 2 -21 0 -30z m-1809 -34 l-3 -44 -5 52 c-3 29
-1 48 3 44 5 -5 7 -28 5 -52z m72 -81 c0 -7 7 -22 15 -32 8 -11 15 -33 15 -50
l0 -29 -23 21 c-42 39 -42 23 -1 -20 73 -76 84 -99 84 -170 -1 -49 -3 -59 -11
-45 -6 10 -8 38 -6 63 4 24 1 46 -4 50 -6 3 -10 0 -8 -7 1 -8 1 -43 -1 -79 -1
-46 -4 -59 -10 -45 -6 13 -9 -7 -9 -62 -1 -77 -9 -100 -27 -71 -4 7 -3 8 4 4
8 -5 12 4 12 28 0 20 -5 36 -11 36 -7 0 -9 -10 -5 -25 4 -14 2 -25 -3 -25 -15
0 -23 39 -16 77 4 24 3 33 -4 28 -6 -3 -11 -1 -11 4 0 6 4 11 8 11 5 0 9 14 9
30 0 22 -4 29 -14 26 -7 -3 -13 -1 -13 4 0 6 7 10 15 10 8 0 15 7 15 15 0 9
-6 12 -15 9 -8 -4 -15 -2 -15 4 0 6 6 12 12 14 9 3 8 10 -5 23 -13 13 -18 30
-16 64 2 26 0 52 -4 58 -4 6 -1 14 5 17 10 5 10 7 1 12 -9 4 -13 29 -13 72 l0
67 25 -37 c14 -20 25 -43 25 -50z m484 27 c-4 -8 -12 -15 -20 -15 -9 0 -14
-12 -14 -36 0 -35 -18 -64 -40 -64 -6 0 -8 -5 -5 -10 4 -6 11 -8 16 -5 5 4 9
1 9 -5 0 -6 -8 -10 -17 -8 -15 3 -18 14 -18 62 1 49 4 61 24 77 29 23 73 26
65 4z m-224 -115 c0 -56 26 -179 55 -259 13 -36 23 -66 22 -67 -1 -1 -11 -4
-23 -8 -19 -6 -25 3 -57 81 -42 102 -56 159 -57 224 0 38 4 48 23 57 34 17 37
15 37 -28z m-115 -254 c22 -60 23 -73 14 -117 -13 -62 -7 -74 10 -18 7 22 14
39 16 37 1 -1 12 -19 22 -38 11 -19 36 -65 57 -102 21 -37 40 -84 42 -105 13
-103 19 -193 14 -193 -4 0 -33 19 -66 42 -54 38 -57 39 -30 10 16 -17 46 -43
66 -57 34 -23 38 -32 44 -82 11 -97 37 -205 64 -273 26 -67 35 -130 18 -130
-5 0 -1 -7 10 -15 19 -14 19 -14 -1 -16 -11 -1 -25 -2 -31 -2 -6 0 -11 -6 -11
-13 0 -10 5 -10 20 -3 14 8 22 8 31 -1 6 -6 7 -11 1 -10 -24 5 -27 -1 -9 -14
18 -14 18 -15 -6 -14 -14 1 -36 10 -49 20 -16 12 -27 15 -31 8 -4 -7 -26 2
-59 25 -29 19 -50 35 -47 35 3 0 -5 16 -18 35 -34 49 -95 244 -112 355 -16
111 -19 274 -4 265 6 -3 10 -2 10 4 0 5 -4 13 -10 16 -6 4 -10 66 -10 153 0
172 9 287 22 274 5 -5 20 -39 33 -76z m-88 -78 c-3 -8 -6 -5 -6 6 -1 11 2 17
5 13 3 -3 4 -12 1 -19z m332 -129 c21 -53 48 -113 60 -133 13 -20 20 -36 17
-36 -8 0 -107 153 -135 207 -26 53 -26 65 0 61 16 -2 29 -25 58 -99z m-342
-11 c-3 -7 -5 -2 -5 12 0 14 2 19 5 13 2 -7 2 -19 0 -25z m1921 -108 c-7 -10
-14 -17 -17 -15 -4 4 18 35 25 35 2 0 -1 -9 -8 -20z m-1603 -74 c43 -63 106
-111 189 -143 l61 -23 -59 5 c-46 4 -68 12 -107 40 -27 19 -49 33 -49 32 0 -2
7 -18 16 -35 8 -18 17 -55 20 -83 3 -44 2 -50 -12 -45 -15 6 -15 4 0 -19 9
-13 23 -54 31 -90 9 -36 34 -104 55 -150 22 -45 40 -88 40 -95 0 -6 -22 12
-50 41 -27 29 -50 48 -50 42 0 -13 70 -103 120 -154 106 -110 133 -139 124
-139 -16 0 -201 196 -238 252 -48 72 -70 148 -95 323 -26 191 -38 295 -34 295
1 0 19 -24 38 -54z m1545 10 c0 -2 -8 -10 -17 -17 -16 -13 -17 -12 -4 4 13 16
21 21 21 13z m-30 -40 c0 -2 -7 -7 -16 -10 -8 -3 -12 -2 -9 4 6 10 25 14 25 6z
m-34 -38 c4 -7 3 -10 -1 -5 -5 4 -18 -1 -29 -10 -21 -18 -21 -18 -2 5 22 26
23 26 32 10z m-1836 -348 c6 -11 8 -20 6 -20 -3 0 -10 9 -16 20 -6 11 -8 20
-6 20 3 0 10 -9 16 -20z m35 -50 c10 -11 16 -20 13 -20 -3 0 -13 9 -23 20 -10
11 -16 20 -13 20 3 0 13 -9 23 -20z m226 -207 c13 -16 12 -17 -3 -4 -10 7 -18
15 -18 17 0 8 8 3 21 -13z m349 -108 l75 -80 -69 65 c-38 36 -66 57 -63 47 4
-11 3 -16 -4 -12 -6 4 -8 13 -5 21 3 7 1 16 -4 19 -6 4 -10 11 -10 17 0 6 1 9
3 7 1 -3 36 -40 77 -84z m207 -156 c45 -46 80 -85 77 -88 -2 -2 -15 5 -27 17
-13 12 -27 19 -30 15 -4 -3 -7 0 -7 8 0 7 -30 45 -67 83 -38 37 -59 64 -48 58
11 -6 57 -48 102 -93z m77 -188 c20 -57 35 -106 33 -108 -5 -5 -30 58 -60 151
-37 113 -15 80 27 -43z m-930 -121 c46 -69 91 -138 100 -155 9 -16 33 -57 52
-90 53 -92 59 -104 48 -115 -6 -6 -58 70 -141 208 -138 228 -203 349 -163 302
12 -14 59 -81 104 -150z m1023 -160 c19 -63 42 -125 50 -138 8 -13 13 -35 11
-50 -3 -25 -4 -24 -25 18 -19 41 -80 249 -89 310 l-4 25 11 -25 c6 -14 27 -77
46 -140z m122 -420 c29 -361 30 -379 36 -590 5 -168 5 -183 -10 -166 -8 11
-15 31 -15 45 0 14 -4 98 -9 186 -6 88 -12 225 -15 305 -8 188 -16 346 -25
443 -7 78 -2 108 11 65 3 -13 16 -142 27 -288z m-60 117 c1 -10 -3 -15 -9 -12
-5 3 -10 21 -9 38 0 27 2 29 9 12 5 -11 9 -28 9 -38z m-634 -197 c-16 -16 -34
-30 -39 -30 -10 1 53 59 63 60 3 0 -8 -13 -24 -30z m-4 -120 c23 -44 54 -96
70 -116 24 -31 27 -39 17 -58 -11 -19 -16 -11 -64 89 -55 114 -76 165 -69 165
2 0 23 -36 46 -80z m43 64 c3 -9 11 -12 18 -8 10 6 10 4 0 -8 -10 -13 -9 -22
5 -49 10 -18 27 -41 38 -51 20 -17 19 -17 -7 -5 -24 11 -56 64 -63 105 -1 9
-8 16 -15 14 -6 -1 -9 2 -5 8 9 15 22 12 29 -6z m63 -162 c0 -11 -4 -10 -14 4
-7 10 -13 22 -13 26 0 5 6 3 13 -4 8 -7 14 -19 14 -26z m28 -22 c-10 -11 -22
-17 -27 -14 -5 4 1 12 14 19 32 18 34 18 13 -5z m41 -42 c5 -7 3 -8 -6 -3 -8
5 -11 3 -8 -6 3 -8 11 -13 17 -11 7 1 9 -3 6 -9 -5 -8 -10 -8 -18 0 -14 14
-27 14 -27 0 0 -13 55 -79 156 -190 35 -38 64 -72 64 -77 0 -4 -10 -13 -22
-21 -21 -13 -26 -10 -89 57 -37 38 -88 101 -113 138 l-45 68 34 33 c38 37 41
38 51 21z m241 -296 c-15 -15 -27 -33 -27 -39 0 -6 16 -32 35 -57 19 -25 32
-46 29 -46 -3 0 -30 19 -60 42 l-54 42 48 43 c54 49 68 56 29 15z m323 -336
c0 -206 -6 -276 -22 -276 -5 0 -8 77 -7 183 2 100 -1 216 -6 257 l-8 75 22
-19 c20 -18 21 -27 21 -220z m1114 168 c3 -8 2 -12 -4 -9 -6 3 -10 10 -10 16
0 14 7 11 14 -7z m-1079 -4 c3 -5 2 -10 -4 -10 -5 0 -13 5 -16 10 -3 6 -2 10
4 10 5 0 13 -4 16 -10z m70 -29 c64 -24 222 -43 287 -35 37 5 49 4 44 -5 -4
-6 -3 -11 2 -11 6 0 -6 -16 -25 -35 -34 -34 -39 -36 -96 -33 -55 3 -61 5 -62
25 -2 30 -8 35 -58 48 -23 6 -52 15 -64 19 -20 6 -23 3 -29 -33 -5 -32 -11
-41 -26 -41 -17 0 -19 6 -17 48 1 26 -1 53 -5 60 -9 15 -10 15 49 -7z m405
-11 c0 -5 -8 -10 -17 -10 -15 0 -16 2 -3 10 19 12 20 12 20 0z m350 6 c0 -2
-7 -7 -16 -10 -8 -3 -12 -2 -9 4 6 10 25 14 25 6z m-773 -112 c13 -4 21 -9 19
-13 -3 -4 -7 -56 -11 -117 -6 -106 -21 -194 -34 -194 -23 1 -28 18 -21 67 5
28 10 99 12 157 2 58 5 106 8 106 3 0 15 -3 27 -6z m353 -24 c-8 -5 -24 -10
-36 -10 -18 0 -22 -8 -27 -47 -11 -95 -30 -185 -36 -175 -4 6 -11 4 -19 -4
-11 -12 -9 -16 10 -23 18 -8 12 -10 -32 -10 -49 0 -52 2 -30 11 l25 11 -24 5
-24 4 6 114 6 114 -44 0 c-25 0 -45 5 -45 10 0 6 54 10 143 10 95 0 137 -3
127 -10z m386 -236 c-11 -7 -22 -12 -25 -9 -2 3 4 12 15 19 10 8 21 12 24 9 3
-2 -4 -11 -14 -19z m-286 -43 c0 -6 -9 -9 -20 -8 -11 1 -20 5 -20 9 0 4 9 8
20 8 11 0 20 -4 20 -9z m-152 -17 c-3 -3 -51 -7 -106 -9 -55 -1 -110 -8 -123
-15 l-24 -11 24 20 c20 18 37 21 129 21 58 0 103 -3 100 -6z m-343 -16 c18 -8
25 -19 25 -38 0 -15 7 -46 15 -69 8 -23 10 -39 5 -36 -6 3 -10 11 -10 17 0 5
-9 21 -20 35 -11 14 -20 20 -20 13 0 -26 -12 -1 -14 29 -1 17 3 31 8 31 6 1 0
7 -14 15 -30 17 -11 20 25 3z m696 -205 c-5 -10 -17 -27 -26 -38 -16 -19 -17
-19 -3 5 26 46 29 50 34 50 3 0 0 -8 -5 -17z m-61 -93 c-12 -16 -24 -30 -26
-30 -3 0 4 14 16 30 12 17 24 30 26 30 3 0 -4 -13 -16 -30z m834 -27 c9 -18
14 -33 12 -33 -6 0 -36 55 -36 66 0 11 5 3 24 -33z m46 -87 c0 -6 -7 -1 -15
10 -8 10 -15 23 -15 28 0 6 7 1 15 -10 8 -10 15 -23 15 -28z m-957 -3 c-8 -24
-57 -80 -97 -111 -17 -14 -6 1 25 34 31 32 59 67 62 77 4 9 9 17 11 17 3 0 3
-8 -1 -17z m34 -116 c-3 -9 4 -13 22 -12 57 1 61 -3 309 -294 107 -126 192
-238 186 -244 -4 -3 25 -41 63 -84 85 -97 186 -223 181 -227 -1 -2 -33 -6 -69
-10 l-67 -6 -57 91 c-104 164 -417 575 -539 707 -49 52 -56 65 -46 77 15 18
24 19 17 2z m209 -132 l46 -60 -48 55 c-27 30 -61 67 -75 82 -15 15 -24 30
-21 33 6 6 23 -14 98 -110z m644 -1062 c63 -107 134 -235 157 -284 23 -48 70
-137 106 -196 35 -59 97 -164 137 -233 176 -300 204 -347 227 -378 13 -18 23
-38 20 -45 -5 -14 -88 112 -177 268 -35 61 -134 227 -220 370 -86 143 -196
332 -245 420 -48 88 -102 183 -120 210 -17 28 -34 55 -38 61 -4 7 1 10 16 7
16 -4 52 -55 137 -200z m1067 166 c-14 -8 -22 -8 -30 0 -8 8 -3 11 19 11 25
-1 27 -2 11 -11z m-74 -188 c31 -30 37 -41 36 -76 -1 -22 -5 -51 -9 -65 -6
-18 -8 -7 -7 39 2 63 2 64 -38 95 -22 17 -64 55 -95 85 l-55 53 65 -47 c36
-27 82 -64 103 -84z m-13 -1115 c0 -7 -93 -57 -97 -52 -2 2 15 15 39 29 41 25
58 32 58 23z m-140 -87 c-21 -18 -31 -32 -24 -37 14 -10 157 -332 160 -362 1
-14 27 -77 58 -140 38 -78 66 -154 86 -234 16 -66 28 -122 25 -124 -4 -4 -27
47 -40 89 -4 13 -35 85 -70 159 -76 164 -140 326 -190 480 -21 63 -42 121 -48
128 -5 7 -8 14 -6 15 2 2 19 15 37 30 46 37 56 34 12 -4z m-40 12 c0 -6 -4
-12 -8 -15 -5 -3 -9 1 -9 9 0 8 4 15 9 15 4 0 8 -4 8 -9z m391 -327 c-52 -24
-96 -42 -99 -39 -7 7 -6 8 88 48 118 51 125 45 11 -9z m-111 -48 c0 -4 -68
-46 -76 -46 -15 0 1 19 29 33 33 16 47 20 47 13z"/>
<path d="M2381 13504 c0 -11 3 -14 6 -6 3 7 2 16 -1 19 -3 4 -6 -2 -5 -13z"/>
<path d="M2402 13320 c0 -19 2 -27 5 -17 2 9 2 25 0 35 -3 9 -5 1 -5 -18z"/>
<path d="M2383 13237 c0 -6 -1 -37 -2 -67 l-2 -55 -34 38 c-40 43 -42 43 -42
20 0 -10 15 -37 33 -60 27 -33 34 -50 34 -86 0 -39 3 -46 24 -51 13 -3 32 -9
43 -12 10 -3 6 3 -9 12 -21 14 -28 27 -28 51 0 36 2 38 28 24 9 -4 31 -11 47
-15 25 -6 22 -2 -20 25 -27 17 -53 36 -56 41 -3 5 -4 38 -2 73 3 36 1 65 -5
69 -5 3 -10 0 -9 -7z"/>
<path d="M2550 12936 c0 -2 9 -6 20 -9 11 -3 18 -1 14 4 -5 9 -34 13 -34 5z"/>
<path d="M3125 13490 c3 -5 8 -10 11 -10 2 0 4 5 4 10 0 6 -5 10 -11 10 -5 0
-7 -4 -4 -10z"/>
<path d="M3115 13451 c-3 -10 -15 -21 -25 -24 -13 -3 -18 -11 -14 -21 3 -8 -3
-31 -15 -49 -12 -19 -21 -42 -21 -51 0 -9 -4 -16 -9 -16 -5 0 -27 -31 -50 -70
-23 -38 -46 -72 -52 -75 -5 -4 9 24 31 61 32 52 39 69 28 75 -8 6 -19 1 -31
-14 -29 -36 -41 -64 -13 -32 14 17 25 25 26 20 0 -6 -4 -15 -9 -20 -10 -12
-71 -124 -71 -132 0 -3 6 0 13 6 8 6 16 9 19 6 3 -3 18 13 33 35 29 42 43 53
26 22 -6 -10 -7 -29 -4 -42 4 -16 3 -21 -6 -16 -6 4 -9 13 -5 19 3 7 -3 1 -14
-13 -12 -14 -24 -21 -28 -17 -4 4 -16 -7 -26 -24 -10 -16 -23 -27 -28 -24 -6
3 -10 2 -10 -4 0 -13 17 -23 22 -13 4 10 78 66 78 59 0 -2 -12 -30 -26 -61
-14 -32 -24 -60 -21 -63 6 -5 34 43 54 92 l12 30 -5 -37 c-6 -34 -4 -36 18
-32 21 4 21 4 3 -5 -16 -8 -17 -10 -3 -10 9 -1 25 -4 35 -7 15 -5 15 -4 3 5
-13 9 -12 11 5 11 17 0 17 2 5 10 -12 8 -12 10 5 11 11 0 14 3 8 6 -20 7 -15
23 6 23 26 0 36 17 14 22 -14 2 -10 8 17 25 40 25 84 79 75 93 -4 6 1 7 11 3
13 -5 15 -3 9 7 -6 10 -4 12 8 7 15 -6 34 20 22 31 -3 3 -5 0 -5 -6 0 -7 -5
-12 -12 -12 -6 0 -4 7 5 18 19 20 22 33 8 30 -5 -2 -9 2 -10 7 -1 6 4 10 10
10 10 0 59 72 59 87 0 4 -10 7 -22 7 -32 -1 -54 5 -70 18 -16 14 -40 2 -36
-18 2 -8 -3 -13 -11 -11 -9 2 -11 -3 -7 -13 4 -11 2 -15 -6 -13 -7 3 -21 -5
-31 -16 -10 -12 -15 -14 -11 -6 4 8 15 24 26 36 22 25 40 82 28 89 -5 3 -11
-3 -15 -14z m85 -84 c0 -2 -10 -12 -22 -23 l-23 -19 19 23 c18 21 26 27 26 19z"/>
<path d="M3007 13303 c-4 -3 -7 -11 -7 -17 0 -6 5 -5 12 2 6 6 9 14 7 17 -3 3
-9 2 -12 -2z"/>
<path d="M2956 13011 c-4 -7 -5 -15 -2 -18 9 -9 19 4 14 18 -4 11 -6 11 -12 0z"/>
<path d="M2906 12686 c7 -19 20 -21 30 -3 4 6 4 9 -1 5 -4 -4 -14 -3 -22 4
-11 8 -12 7 -7 -6z"/>
<path d="M4410 13296 c0 -2 8 -10 18 -17 15 -13 16 -12 3 4 -13 16 -21 21 -21
13z"/>
<path d="M3056 12834 c-20 -19 -20 -21 -1 -21 8 0 13 3 10 5 -3 3 0 11 6 19
16 18 4 16 -15 -3z"/>
<path d="M3076 12802 c-3 -4 4 -9 15 -9 23 -2 25 3 4 10 -8 4 -16 3 -19 -1z"/>
<path d="M2976 12625 c-9 -26 -7 -32 5 -12 6 10 9 21 6 23 -2 3 -7 -2 -11 -11z"/>
<path d="M2710 12325 c0 -8 2 -15 4 -15 2 0 6 7 10 15 3 8 1 15 -4 15 -6 0
-10 -7 -10 -15z"/>
<path d="M4935 12130 c-3 -5 -1 -10 4 -10 6 0 11 5 11 10 0 6 -2 10 -4 10 -3
0 -8 -4 -11 -10z"/>
<path d="M4992 11940 c0 -14 2 -19 5 -12 2 6 2 18 0 25 -3 6 -5 1 -5 -13z"/>
<path d="M4992 11830 c0 -14 2 -19 5 -12 2 6 2 18 0 25 -3 6 -5 1 -5 -13z"/>
<path d="M4390 11794 c0 -10 5 -26 10 -34 8 -11 9 -7 4 15 -8 37 -14 45 -14
19z"/>
<path d="M4935 11687 c-16 -22 -52 -55 -79 -74 -26 -18 -44 -33 -38 -33 27 0
165 132 151 144 -2 1 -17 -15 -34 -37z"/>
<path d="M4460 11665 c19 -19 36 -35 39 -35 3 0 -10 16 -29 35 -19 19 -36 35
-39 35 -3 0 10 -16 29 -35z"/>
<path d="M4554 11596 c11 -9 24 -16 30 -16 12 0 7 5 -24 19 -24 11 -24 11 -6
-3z"/>
<path d="M4608 11573 c7 -3 16 -2 19 1 4 3 -2 6 -13 5 -11 0 -14 -3 -6 -6z"/>
<path d="M4678 11563 c17 -2 47 -2 65 0 17 2 3 4 -33 4 -36 0 -50 -2 -32 -4z"/>
<path d="M2175 11784 c-22 -8 -44 -19 -49 -24 -5 -5 11 -1 37 8 25 10 49 21
53 25 9 9 7 8 -41 -9z"/>
<path d="M2039 11703 c-13 -16 -12 -17 4 -4 16 13 21 21 13 21 -2 0 -10 -8
-17 -17z"/>
<path d="M1985 11653 c-36 -42 -75 -104 -75 -118 0 -5 12 10 26 35 14 25 39
60 57 77 17 18 29 35 26 37 -2 2 -18 -12 -34 -31z"/>
<path d="M1892 11470 c0 -14 2 -19 5 -12 2 6 2 18 0 25 -3 6 -5 1 -5 -13z"/>
<path d="M1650 10795 c0 -8 2 -15 4 -15 2 0 6 7 10 15 3 8 1 15 -4 15 -6 0
-10 -7 -10 -15z"/>
<path d="M3200 8930 c-9 -6 -10 -10 -3 -10 6 0 15 5 18 10 8 12 4 12 -15 0z"/>
<path d="M2830 8605 c-10 -12 -10 -15 4 -15 9 0 16 7 16 15 0 8 -2 15 -4 15
-2 0 -9 -7 -16 -15z"/>
<path d="M3863 8202 c-1 -22 0 -24 9 -8 6 10 6 22 2 26 -5 5 -10 -3 -11 -18z"/>
<path d="M3888 8202 c-4 -26 0 -35 15 -44 15 -8 18 -7 12 3 -5 7 -11 26 -15
43 l-6 31 -6 -33z"/>
<path d="M3474 8447 c-21 -18 -24 -26 -14 -32 8 -5 11 -4 6 3 -8 13 30 36 44
27 6 -3 7 1 4 9 -8 20 -8 20 -40 -7z"/>
<path d="M3545 8090 c-3 -5 -2 -10 4 -10 5 0 13 5 16 10 3 6 2 10 -4 10 -5 0
-13 -4 -16 -10z"/>
<path d="M3243 8015 l-28 -25 28 11 c15 7 27 17 27 23 0 6 5 4 10 -4 6 -9 10
-10 10 -3 0 24 -19 23 -47 -2z"/>
<path d="M3760 8019 c0 -5 -4 -7 -10 -4 -5 3 -10 1 -10 -4 0 -17 27 -13 34 4
3 8 1 15 -4 15 -6 0 -10 -5 -10 -11z"/>
<path d="M3836 7961 c-4 -5 -2 -12 3 -15 5 -4 12 -2 15 3 4 5 2 12 -3 15 -5 4
-12 2 -15 -3z"/>
<path d="M2210 7791 c0 -6 4 -13 10 -16 6 -3 7 1 4 9 -7 18 -14 21 -14 7z"/>
<path d="M2183 7712 c-1 -22 0 -24 9 -8 6 10 6 22 2 26 -5 5 -10 -3 -11 -18z"/>
<path d="M2220 7600 c0 -62 3 -111 6 -107 7 7 5 209 -2 216 -2 2 -4 -47 -4
-109z"/>
<path d="M2242 7675 c0 -16 2 -22 5 -12 2 9 2 23 0 30 -3 6 -5 -1 -5 -18z"/>
<path d="M2180 7670 c0 -5 5 -10 10 -10 6 0 10 5 10 10 0 6 -4 10 -10 10 -5 0
-10 -4 -10 -10z"/>
<path d="M2240 7560 c0 -5 5 -10 11 -10 5 0 7 5 4 10 -3 6 -8 10 -11 10 -2 0
-4 -4 -4 -10z"/>
<path d="M2220 7464 c0 -8 5 -12 10 -9 6 3 10 10 10 16 0 5 -4 9 -10 9 -5 0
-10 -7 -10 -16z"/>
<path d="M2350 7298 c0 -19 2 -20 10 -8 13 19 13 30 0 30 -5 0 -10 -10 -10
-22z"/>
<path d="M2330 7122 c0 -5 9 -17 20 -27 11 -10 20 -15 20 -12 0 4 -9 16 -20
27 -11 11 -20 16 -20 12z"/>
<path d="M2346 7010 c6 -67 26 -159 30 -145 2 6 -5 53 -16 105 -13 66 -18 78
-14 40z"/>
<path d="M2381 6834 c0 -11 3 -14 6 -6 3 7 2 16 -1 19 -3 4 -6 -2 -5 -13z"/>
<path d="M2470 6593 c1 -15 50 -88 50 -74 0 7 -9 29 -21 47 -20 33 -29 42 -29
27z"/>
<path d="M4281 3163 c57 -71 222 -264 232 -269 14 -9 14 -8 -127 159 -59 70
-110 127 -113 127 -3 0 1 -8 8 -17z"/>
<path d="M2574 13935 c-27 -14 -67 -41 -89 -61 -39 -35 -39 -34 15 5 30 22 75
49 100 60 25 11 40 20 34 20 -5 1 -32 -10 -60 -24z"/>
<path d="M3230 13848 c8 -8 21 -20 29 -28 12 -12 11 -10 0 9 -9 14 -22 27 -30
29 -11 3 -11 1 1 -10z"/>
<path d="M2282 13530 c0 -14 2 -19 5 -12 2 6 2 18 0 25 -3 6 -5 1 -5 -13z"/>
<path d="M3391 13534 c0 -11 3 -14 6 -6 3 7 2 16 -1 19 -3 4 -6 -2 -5 -13z"/>
<path d="M3403 13460 c0 -25 2 -35 4 -22 2 12 2 32 0 45 -2 12 -4 2 -4 -23z"/>
<path d="M1625 11590 c-3 -5 -1 -10 5 -10 6 0 8 -5 5 -10 -4 -6 -11 -7 -17 -4
-7 4 -8 2 -4 -5 11 -17 37 6 29 25 -6 17 -10 17 -18 4z"/>
<path d="M1599 11523 c-13 -16 -12 -17 4 -4 9 7 17 15 17 17 0 8 -8 3 -21 -13z"/>
<path d="M1553 11458 c-15 -20 -25 -38 -20 -38 3 0 12 11 21 25 17 26 16 35
-1 13z"/>
<path d="M1500 11370 c-11 -22 -18 -40 -15 -40 2 0 14 18 25 40 11 22 18 40
15 40 -2 0 -14 -18 -25 -40z"/>
<path d="M1376 11155 c-9 -26 -7 -32 5 -12 6 10 9 21 6 23 -2 3 -7 -2 -11 -11z"/>
<path d="M1345 11069 c-4 -6 -5 -12 -2 -15 2 -3 7 2 10 11 7 17 1 20 -8 4z"/>
<path d="M1332 11020 c0 -14 2 -19 5 -12 2 6 2 18 0 25 -3 6 -5 1 -5 -13z"/>
<path d="M1393 10972 c-34 -21 -62 -180 -31 -170 23 8 49 66 55 123 6 54 1 63
-24 47z"/>
<path d="M1301 10884 c0 -11 3 -14 6 -6 3 7 2 16 -1 19 -3 4 -6 -2 -5 -13z"/>
<path d="M1281 10774 c0 -11 3 -14 6 -6 3 7 2 16 -1 19 -3 4 -6 -2 -5 -13z"/>
<path d="M3922 9889 c-18 -21 -30 -39 -25 -38 10 1 67 68 62 74 -2 2 -19 -14
-37 -36z"/>
<path d="M1580 9690 c6 -11 16 -20 22 -20 6 0 3 9 -7 20 -10 11 -20 20 -22 20
-2 0 1 -9 7 -20z"/>
<path d="M1646 9615 c21 -27 40 -52 41 -54 2 -2 5 -2 8 0 2 3 -16 27 -41 55
l-46 49 38 -50z"/>
<path d="M678 8903 c7 -3 16 -2 19 1 4 3 -2 6 -13 5 -11 0 -14 -3 -6 -6z"/>
<path d="M735 8881 c-3 -5 0 -13 6 -17 7 -4 9 -3 5 4 -3 5 0 13 6 15 9 4 10 6
1 6 -6 1 -14 -3 -18 -8z"/>
<path d="M16 8825 c-3 -9 -5 -58 -4 -108 l1 -92 7 105 c7 111 6 121 -4 95z"/>
<path d="M71 8294 c0 -11 3 -14 6 -6 3 7 2 16 -1 19 -3 4 -6 -2 -5 -13z"/>
<path d="M4313 8265 c0 -27 2 -38 4 -22 2 15 2 37 0 50 -2 12 -4 0 -4 -28z"/>
<path d="M1722 8030 c0 -14 2 -19 5 -12 2 6 2 18 0 25 -3 6 -5 1 -5 -13z"/>
<path d="M1712 7975 c0 -16 2 -22 5 -12 2 9 2 23 0 30 -3 6 -5 -1 -5 -18z"/>
<path d="M1744 7950 c0 -13 4 -16 10 -10 7 7 7 13 0 20 -6 6 -10 3 -10 -10z"/>
<path d="M1752 7835 c0 -16 2 -22 5 -12 2 9 2 23 0 30 -3 6 -5 -1 -5 -18z"/>
<path d="M1915 7850 c-21 -5 -7 -7 41 -6 40 1 67 4 60 8 -13 9 -60 8 -101 -2z"/>
<path d="M1750 7789 c0 -5 5 -7 10 -4 6 3 10 8 10 11 0 2 -4 4 -10 4 -5 0 -10
-5 -10 -11z"/>
<path d="M1741 7713 c0 -25 1 -26 9 -8 12 27 12 35 0 35 -5 0 -10 -12 -9 -27z"/>
<path d="M1741 7664 c0 -11 3 -14 6 -6 3 7 2 16 -1 19 -3 4 -6 -2 -5 -13z"/>
<path d="M1763 7425 c0 -38 2 -53 4 -32 2 20 2 52 0 70 -2 17 -4 1 -4 -38z"/>
<path d="M1983 7273 c9 -2 23 -2 30 0 6 3 -1 5 -18 5 -16 0 -22 -2 -12 -5z"/>
<path d="M1853 7215 c-3 -9 -3 -18 -1 -21 3 -3 8 4 11 16 6 23 -1 27 -10 5z"/>
<path d="M1911 7213 c-1 -19 67 -251 84 -283 9 -17 20 -30 26 -30 5 0 2 15 -8
33 -9 17 -36 91 -59 162 -23 72 -43 125 -43 118z"/>
<path d="M1946 7165 c17 -76 101 -291 111 -282 2 3 -19 67 -47 144 -55 146
-75 189 -64 138z"/>
<path d="M4510 4543 c0 -7 4 -14 8 -17 4 -2 25 -48 47 -102 22 -53 41 -92 43
-86 2 6 -15 53 -38 104 -41 92 -60 123 -60 101z"/>
<path d="M4611 4315 c38 -105 63 -165 66 -162 5 6 -48 150 -60 162 -6 7 -8 7
-6 0z"/>
<path d="M4680 4135 c0 -5 5 -17 10 -25 5 -8 10 -10 10 -5 0 6 -5 17 -10 25
-5 8 -10 11 -10 5z"/>
<path d="M4710 4055 c0 -5 5 -17 10 -25 5 -8 10 -10 10 -5 0 6 -5 17 -10 25
-5 8 -10 11 -10 5z"/>
<path d="M3420 3691 c0 -5 7 -15 17 -22 15 -13 15 -12 4 9 -12 23 -21 28 -21
13z"/>
<path d="M4981 3420 c6 -16 15 -30 19 -30 5 0 2 14 -6 30 -9 17 -17 30 -19 30
-2 0 1 -13 6 -30z"/>
<path d="M5625 2825 c25 -20 196 -108 201 -103 2 2 -47 30 -109 61 -62 32
-103 50 -92 42z"/>
<path d="M5910 2686 c0 -2 7 -6 15 -10 8 -3 15 -1 15 4 0 6 -7 10 -15 10 -8 0
-15 -2 -15 -4z"/>
</g>
</svg>
