<?xml version="1.0" standalone="no"?>
<!DOCTYPE svg PUBLIC "-//W3C//DTD SVG 20010904//EN"
 "http://www.w3.org/TR/2001/REC-SVG-20010904/DTD/svg10.dtd">
<svg version="1.0" xmlns="http://www.w3.org/2000/svg"
 width="2560.000000pt" height="1029.000000pt" viewBox="0 0 2560.000000 1029.000000"
 preserveAspectRatio="xMidYMid meet">

<g transform="translate(0.000000,1029.000000) scale(0.100000,-0.100000)"
fill="#ED1D24" stroke="none">
<path d="M0 5145 l0 -5145 12800 0 12800 0 0 5145 0 5145 -12800 0 -12800 0 0
-5145z m2773 4318 c3 -5 159 -1001 348 -2215 189 -1215 346 -2208 349 -2208 3
0 83 487 178 1083 95 595 255 1592 355 2215 l181 1132 993 0 993 0 2 -3950 3
-3950 589 3927 c323 2161 590 3938 593 3951 l5 22 1034 0 c819 0 1036 -3 1039
-12 3 -7 261 -1723 575 -3813 314 -2090 572 -3804 574 -3810 3 -5 5 1710 5
3813 l1 3822 834 0 c476 0 888 -4 962 -10 366 -29 702 -128 999 -293 403 -224
754 -579 998 -1007 45 -79 48 -82 43 -45 -19 130 -166 1315 -166 1333 l0 22
789 0 789 0 6 -27 c3 -16 163 -1193 356 -2618 193 -1424 352 -2593 353 -2598
1 -4 163 1171 360 2610 198 1440 362 2621 366 2626 4 4 992 6 2197 5 l2189 -3
3 -787 2 -788 -700 0 -700 0 0 -975 0 -975 698 -2 697 -3 0 -790 0 -790 -697
-3 -698 -2 0 -990 0 -990 700 0 700 0 -2 -777 -3 -778 -1475 0 -1475 0 -5
3886 -5 3886 -614 -3876 c-338 -2132 -616 -3882 -619 -3889 -3 -9 -195 -12
-913 -12 l-908 0 -6 33 c-3 17 -206 1225 -450 2682 -369 2207 -443 2636 -444
2565 -5 -462 -161 -947 -441 -1368 -143 -216 -255 -342 -472 -533 l-26 -24
484 -1645 c267 -905 487 -1660 491 -1678 l6 -32 -766 0 -766 0 -12 43 c-6 23
-174 664 -374 1425 -200 761 -366 1386 -369 1389 -6 6 -296 -32 -338 -44 -17
-4 -18 -80 -18 -1409 l0 -1404 -1479 0 c-814 0 -1482 4 -1485 8 -3 5 -44 292
-91 638 -47 346 -88 644 -92 662 l-5 32 -604 0 c-332 0 -604 -3 -604 -6 0 -35
-182 -1320 -188 -1326 -5 -5 -683 -7 -1508 -6 l-1499 3 -5 2052 -5 2053 -345
-2053 -345 -2052 -409 -3 c-226 -1 -414 2 -418 6 -5 5 -166 931 -358 2057
-192 1127 -351 2053 -354 2059 -2 6 -5 -919 -5 -2056 l-1 -2068 -780 0 -780 0
0 4330 0 4330 989 0 c545 0 992 -3 994 -7z m20715 -3540 l2 -3543 660 0 660 0
0 -780 0 -780 -1440 0 -1440 0 0 4325 0 4325 778 -2 777 -3 3 -3542z"/>
<path d="M12150 6530 l0 -1392 68 7 c399 43 736 351 881 806 142 448 110 1043
-76 1414 -161 319 -450 519 -802 551 l-71 7 0 -1393z"/>
<path d="M8397 7140 c-10 -61 -417 -3574 -417 -3600 0 -20 5 -20 430 -20 l430
0 0 24 c0 16 -388 3260 -432 3611 -4 27 -5 25 -11 -15z"/>
<path d="M14742 6200 c0 -14 2 -19 5 -12 2 6 2 18 0 25 -3 6 -5 1 -5 -13z"/>
</g>
</svg>
